<?xml version="1.0" encoding="utf-8"?>
<!-- Generator: Adobe Illustrator 22.1.0, SVG Export Plug-In . SVG Version: 6.00 Build 0)  -->
<svg version="1.1" id="Layer_1" xmlns="http://www.w3.org/2000/svg" xmlns:xlink="http://www.w3.org/1999/xlink" x="0px" y="0px"
	 viewBox="0 0 639.4 709.9" style="enable-background:new 0 0 639.4 709.9;" xml:space="preserve">
<style type="text/css">
	.st0{clip-path:url(#SVGID_2_);}
	.st1{clip-path:url(#SVGID_6_);}
	.st2{clip-path:url(#SVGID_8_);}
	.st3{fill:#2F12DB;}
	.st4{fill:#333104;}
	.st5{stroke:#000000;stroke-width:0.5;stroke-miterlimit:10;}
	.st6{fill:#DFED7A;}
	.st7{fill:#8FEF78;}
	.st8{fill:#79BFF2;}
	.st9{fill:#FFFFFF;}
	.st10{fill:#1873D6;}
	.st11{fill:#A5D5F2;}
	.st12{fill:#52A1E8;}
	.st13{fill:#063056;}
	.st14{fill:#ED4850;}
	.st15{fill:#7F0A1E;}
	.st16{fill:#F79CAA;}
	.st17{fill:#7C0A2B;}
	.st18{fill:#350606;}
	.st19{fill:#088708;}
	.st20{fill:#FFFFFF;stroke:#000000;stroke-width:0.5;stroke-miterlimit:10;}
	.st21{fill:#7C790E;}
	.st22{fill:#7F5005;}
	.st23{fill:#939393;}
	.st24{stroke:#000000;stroke-miterlimit:10;}
	.st25{fill:#FFFFFF;stroke:#000000;stroke-miterlimit:10;}
	.st26{fill:#8FEA9C;stroke:#FFFFFF;stroke-width:0.25;stroke-miterlimit:10;}
	.st27{fill:#3D0335;stroke:#FFFFFF;stroke-width:0.1;stroke-miterlimit:10;}
	.st28{fill:#B50D95;stroke:#FFFFFF;stroke-width:0.25;stroke-miterlimit:10;}
	.st29{fill:#AD0CC4;stroke:#FFFFFF;stroke-width:0.1;stroke-miterlimit:10;}
	.st30{fill:#EAACE4;}
	.st31{fill:#095B13;}
	.st32{fill:#E530D4;}
	.st33{fill:#91DBE8;stroke:#FFFFFF;stroke-width:0.25;stroke-miterlimit:10;}
	.st34{fill:#0A208E;stroke:#FFFFFF;stroke-width:0.1;stroke-miterlimit:10;}
	.st35{fill:#0F80B2;stroke:#FFFFFF;stroke-width:0.25;stroke-miterlimit:10;}
	.st36{fill:#7583CC;stroke:#FFFFFF;stroke-width:0.1;stroke-miterlimit:10;}
	.st37{fill:#A0EFEF;}
	.st38{fill:#33DAE2;}
	.st39{fill:#FFFFFF;stroke:#000000;stroke-width:0.25;stroke-miterlimit:10;}
	.st40{fill:#FFFFFF;stroke:#000000;stroke-width:0.1;stroke-miterlimit:10;}
	.st41{fill:#AAAAAA;}
	.st42{fill:#3A3A3A;}
	.st43{fill:#BCBCBC;}
	.st44{fill:#6B6B6B;}
	.st45{fill:#848484;}
</style>
<title>Asset 2</title>
<title>Asset 1</title>
<image style="overflow:visible;" width="2664" height="2958" xlink:href="../calcc-01.png"  transform="matrix(0.24 0 0 0.24 -658.7283 -101)">
</image>
<g>
	<defs>
		<path id="SVGID_1_" d="M-62.2,1291h-553.6c-16.3,0-29.5-13.2-29.5-29.5v-623c0-16.3,13.2-29.5,29.5-29.5h553.6
			c16.3,0,29.5,13.2,29.5,29.5v623C-32.7,1277.8-45.9,1291-62.2,1291z"/>
	</defs>
	<clipPath id="SVGID_2_">
		<use xlink:href="#SVGID_1_"  style="overflow:visible;"/>
	</clipPath>
	<g id="Layer_2_2_" class="st0">
		<g id="Layer_1-2_1_">
			
				<image style="overflow:visible;enable-background:new    ;" width="2413" height="2680" xlink:href="D02145D6CAE2283B.png"  transform="matrix(0.2899 0 0 0.2899 -688.863 567.485)">
			</image>
		</g>
	</g>
</g>
<title>vm-project-pic</title>
<g>
	<defs>
		<path id="SVGID_3_" d="M-745.5,595h-553.6c-16.3,0-29.5-13.2-29.5-29.5v-623c0-16.3,13.2-29.5,29.5-29.5h553.6
			c16.3,0,29.5,13.2,29.5,29.5v623C-716,581.8-729.2,595-745.5,595z"/>
	</defs>
	<clipPath id="SVGID_4_">
		<use xlink:href="#SVGID_3_"  style="overflow:visible;"/>
	</clipPath>
	<g style="clip-path:url(#SVGID_4_);enable-background:new    ;">
		
			<image style="overflow:visible;" width="6193" height="6988" xlink:href="D02145D6CAE22839.jpg"  transform="matrix(0.1042 0 0 0.1042 -1331.99 -100.2143)">
		</image>
	</g>
</g>
<g>
	<defs>
		<path id="SVGID_5_" d="M-745.5,1291h-553.6c-16.3,0-29.5-13.2-29.5-29.5v-623c0-16.3,13.2-29.5,29.5-29.5h553.6
			c16.3,0,29.5,13.2,29.5,29.5v623C-716,1277.8-729.2,1291-745.5,1291z"/>
	</defs>
	<clipPath id="SVGID_6_">
		<use xlink:href="#SVGID_5_"  style="overflow:visible;"/>
	</clipPath>
	<g id="Layer_2_1_" class="st1">
		<g id="Layer_1-2">
			
				<image style="overflow:visible;enable-background:new    ;" width="569" height="625" xlink:href="D02145D6CAE2283F.jpg"  transform="matrix(1.1817 0 0 1.1817 -1358.521 608.78)">
			</image>
		</g>
	</g>
</g>
<title>ee</title>
<path d="M596.1,696H42.4c-16.3,0-29.5-13.2-29.5-29.5v-623c0-16.3,13.2-29.5,29.5-29.5h553.6c16.3,0,29.5,13.2,29.5,29.5v623
	C625.6,682.8,612.4,696,596.1,696z"/>
<g>
	<defs>
		<path id="SVGID_7_" d="M-1389.4,595h-553.6c-16.3,0-29.5-13.2-29.5-29.5v-623c0-16.3,13.2-29.5,29.5-29.5h553.6
			c16.3,0,29.5,13.2,29.5,29.5v623C-1359.9,581.8-1373.1,595-1389.4,595z"/>
	</defs>
	<clipPath id="SVGID_8_">
		<use xlink:href="#SVGID_7_"  style="overflow:visible;"/>
	</clipPath>
	<g id="Layer_2_3_" class="st2">
		<g id="Layer_1-2_2_">
			
				<image style="overflow:visible;enable-background:new    ;" width="1085" height="1203" xlink:href="D02145D6CAE2283A.jpg"  transform="matrix(0.6226 0 0 0.6226 -2004.0499 -124)">
			</image>
		</g>
	</g>
</g>
<path class="st3" d="M583.2,1478H29.5c-16.3,0-29.5-13.2-29.5-29.5v-623c0-16.3,13.2-29.5,29.5-29.5h553.6
	c16.3,0,29.5,13.2,29.5,29.5v623C612.7,1464.8,599.5,1478,583.2,1478z"/>
<path class="st4" d="M92.4,476.6c0,0-4.6-48.5,26.1-46.3c30.7,2.2,25.1,36.7,24.6,42.5C142.5,478.5,121.2,450,92.4,476.6z"/>
<circle class="st5" cx="528.7" cy="268.8" r="83.5"/>
<circle class="st6" cx="316.5" cy="268.8" r="83.5"/>
<circle class="st7" cx="116.5" cy="268.8" r="83.5"/>
<g>
	<path class="st8" d="M35.1,114.3c0,0,18.1,44.1,76.7,42v-42H35.1z"/>
	<path class="st8" d="M188.5,114.3c0,0-18.1,44.1-76.7,42v-42H188.5z"/>
	<path class="st9" d="M111.1,65.8"/>
	<path class="st10" d="M111.8,65.1c0,0-19.5-3.6-78.8,38.3c0,0-6.5,6.5,2.9,12.3h76V65.1z"/>
	<path class="st10" d="M111.8,65.1c0,0,19.5-3.6,78.8,38.3c0,0,6.5,6.5-2.9,12.3h-76V65.1z"/>
	<path class="st11" d="M35.9,115.7c0,0,1.4,9.4,10.1,10.1c8.7,0.7,50.6-8.7,66.5-5.1v-5.1H35.9"/>
	<path class="st11" d="M187.8,115.7c0,0-1.4,9.4-10.1,10.1c-8.7,0.7-50.6-8.7-66.5-5.1v-5.1H187.8"/>
	<path class="st10" d="M51.8,57.8c0,0-23.1,21,4.3,37.6c0,0,17.5,1.5,20-9.7S64.1,44.1,51.8,57.8z"/>
	<path class="st12" d="M51,57.8c3.3-3.8,6.7-5.2,8.7-5.8c9.6-2.7,21.8,3.8,29.7,16.6c0,0,5.2,7.7-5.8,18.8
		c-0.8,0.8-5.3,3.5-10.1,5.1C70,93.7,59,95.4,62.6,94.7l0,0c10.4-4.4,12.3-8,12.3-8c2-3.7,0.4-8-1.4-13c-1.4-3.9-4.4-10.2-10.9-16.6
		C62,56.5,60.8,55.4,59,55C56.2,54.3,53.2,55.4,51,57.8z"/>
	<path d="M44.5,82.4c0,0,23.1,2.2,22.4-7.2c-0.7-9.4-18.1-10.1-21-8C43.1,69.4,41.6,78.1,44.5,82.4z"/>
	<path class="st10" d="M175.6,57.1c0,0,23.1,21-4.3,37.6c0,0-17.5,1.5-20-9.7C148.8,73.8,163.3,43.4,175.6,57.1z"/>
	<path class="st12" d="M176.3,57.1c-3.3-3.8-6.7-5.2-8.7-5.8c-9.6-2.7-21.8,3.8-29.7,16.6c0,0-5.2,7.7,5.8,18.8
		c0.8,0.8,5.3,3.5,10.1,5.1c3.5,1.1,14.5,2.8,10.9,2.2l0,0c-10.4-4.4-12.3-8-12.3-8c-2-3.7-0.4-8,1.4-13c1.4-3.9,4.4-10.2,10.9-16.6
		c0.6-0.6,1.8-1.7,3.6-2.2C171.1,53.6,174.1,54.7,176.3,57.1z"/>
	<path d="M182.8,81.7c0,0-23.1,2.2-22.4-7.2s18.1-10.1,21-8C184.2,68.7,185.7,77.4,182.8,81.7z"/>
	<ellipse class="st13" cx="99.2" cy="99.4" rx="3.3" ry="4"/>
	<ellipse class="st13" cx="120.9" cy="99.4" rx="3.3" ry="4"/>
</g>
<g>
	<path class="st14" d="M239.9,112.3c0,0,18.1,44.1,76.7,42v-42H239.9z"/>
	<path class="st14" d="M393.2,112.3c0,0-18.1,44.1-76.7,42v-42H393.2z"/>
	<path class="st9" d="M315.8,63.9"/>
	<path class="st15" d="M316.5,63.1c0,0-19.5-3.6-78.8,38.3c0,0-6.5,6.5,2.9,12.3h76V63.1z"/>
	<path class="st15" d="M316.5,63.1c0,0,19.5-3.6,78.8,38.3c0,0,6.5,6.5-2.9,12.3h-76V63.1z"/>
	<path class="st16" d="M240.6,113.8c0,0,1.4,9.4,10.1,10.1c8.7,0.7,50.6-8.7,66.5-5.1v-5.1H240.6"/>
	<path class="st16" d="M392.5,113.8c0,0-1.4,9.4-10.1,10.1s-50.6-8.7-66.5-5.1v-5.1H392.5"/>
	<path class="st17" d="M256.5,55.9c0,0-23.1,21,4.3,37.6c0,0,17.5,1.5,20-9.7C283.3,72.5,268.8,42.2,256.5,55.9z"/>
	<path class="st14" d="M255.8,55.9c3.3-3.8,6.7-5.2,8.7-5.8c9.6-2.7,21.8,3.8,29.7,16.6c0,0,5.2,7.7-5.8,18.8
		c-0.8,0.8-5.3,3.5-10.1,5.1c-3.5,1.1-14.5,2.8-10.9,2.2l0,0c10.4-4.4,12.3-8,12.3-8c2-3.7,0.4-8-1.4-13
		c-1.4-3.9-4.4-10.2-10.9-16.6c-0.6-0.6-1.8-1.7-3.6-2.2C261,52.3,257.9,53.5,255.8,55.9z"/>
	<path d="M249.3,80.5c0,0,23.1,2.2,22.4-7.2c-0.7-9.4-18.1-10.1-21-8C247.8,67.5,246.4,76.2,249.3,80.5z"/>
	<path class="st17" d="M380.3,55.2c0,0,23.1,21-4.3,37.6c0,0-17.5,1.5-20-9.7S368,41.4,380.3,55.2z"/>
	<path class="st14" d="M381,55.2c-3.3-3.8-6.7-5.2-8.7-5.8c-9.6-2.7-21.8,3.8-29.7,16.6c0,0-5.2,7.7,5.8,18.8
		c0.8,0.8,5.3,3.5,10.1,5.1c3.5,1.1,14.5,2.8,10.9,2.2l0,0c-10.4-4.4-12.3-8-12.3-8c-2-3.7-0.4-8,1.4-13c1.4-3.9,4.4-10.2,10.9-16.6
		c0.6-0.6,1.8-1.7,3.6-2.2C375.8,51.6,378.9,52.8,381,55.2z"/>
	<path d="M387.5,79.8c0,0-23.1,2.2-22.4-7.2s18.1-10.1,21-8S390.4,75.4,387.5,79.8z"/>
	<ellipse class="st18" cx="303.9" cy="97.5" rx="3.3" ry="4"/>
	<ellipse class="st18" cx="325.6" cy="97.5" rx="3.3" ry="4"/>
</g>
<path class="st19" d="M112.4,320.5c0,0-7.3,4.9-9.7,7.3c0,0-12.2,7.3-26.8-19.5c0,0,2.4,4.9,7.3,2.4c0,0,12.2-2.4,12.2-4.9
	c0-2.4-24.4,2.4-24.4,2.4s-12.2-2.4-12.2-17.1c0,0,17.1,4.9,34.1,2.4c0,0,7.3,0-19.5-7.3S61.3,262,61.3,262s29.2,21.9,36.5,19.5
	c7.3-2.4-12.2-4.9-17.1-9.7c0,0-17.1-9.7-19.5-17.1c0,0,4.9-9.7,4.9-12.2s21.9,14.6,26.8,21.9c4.9,7.3,7.3,2.4,7.3,2.4
	s2.4-2.4-12.2-14.6c0,0-17.1-17.1-9.7-24.4c7.3-7.3,12.2-12.2,12.2-14.6c0-2.4,0,36.5,14.6,39c0,0,9.7,2.4-9.7-24.4
	c0,0-2.4-14.6,0-17.1c2.4-2.4,7.3-4.9,7.3-4.9s0,21.9,4.9,21.9c4.9,0-2.4-19.5,0-21.9c0,0,4.9,0,7.3-4.9c0,0,19.5,2.4,21.9,7.3
	c0,0-2.4,17.1-7.3,19.5c-4.9,2.4-12.2,17.1-7.3,17.1s19.5-21.9,19.5-26.8c0,0,2.4-9.7,0-9.7c-2.4,0,9.7,2.4,12.2,12.2
	c0,0-12.2,26.8-29.2,39c0,0,0,7.3,7.3,2.4c7.3-4.9,29.2-31.7,26.8-39c-2.4-7.3,12.2,12.2,9.7,17.1c-2.4,4.9-12.2,19.5-17.1,21.9
	c-4.9,2.4-19.5,12.2-17.1,14.6c2.4,2.4,14.6-4.9,14.6-4.9s19.5-14.6,19.5-26.8c0-12.2,7.3,19.5,7.3,19.5s-26.8,24.4-36.5,21.9
	c0,0-4.9,4.9,19.5,2.4c0,0,7.3-2.4,9.7-9.7s4.9,12.2,2.4,14.6c0,0-9.7,7.3-12.2,4.9s-19.5-2.4-19.5,0s4.9,4.9,4.9,4.9
	s9.7,4.9,26.8-4.9c0,0,2.4,12.2-9.7,19.5c0,0-29.2-9.7-24.4-4.9c0,0,0,12.2,21.9,7.3c0,0-4.9,9.7-19.5,12.2c0,0-19.5-4.9-21.9-12.2
	c-2.4-7.3,0-9.7,0-12.2c0-2.4-2.4,4.9-2.4,9.7s0,17.1,0,17.1H110L112.4,320.5z"/>
<path class="st20" d="M524.6,320.5c0,0-7.3,4.9-9.7,7.3c0,0-12.2,7.3-26.8-19.5c0,0,2.4,4.9,7.3,2.4c0,0,12.2-2.4,12.2-4.9
	c0-2.4-24.4,2.4-24.4,2.4s-12.2-2.4-12.2-17.1c0,0,17.1,4.9,34.1,2.4c0,0,7.3,0-19.5-7.3c-26.8-7.3-12.2-24.4-12.2-24.4
	s29.2,21.9,36.5,19.5c7.3-2.4-12.2-4.9-17.1-9.7c0,0-17.1-9.7-19.5-17.1c0,0,4.9-9.7,4.9-12.2s21.9,14.6,26.8,21.9
	c4.9,7.3,7.3,2.4,7.3,2.4s2.4-2.4-12.2-14.6c0,0-17.1-17.1-9.7-24.4c7.3-7.3,12.2-12.2,12.2-14.6c0-2.4,0,36.5,14.6,39
	c0,0,9.7,2.4-9.7-24.4c0,0-2.4-14.6,0-17.1c2.4-2.4,7.3-4.9,7.3-4.9s0,21.9,4.9,21.9c4.9,0-2.4-19.5,0-21.9c0,0,4.9,0,7.3-4.9
	c0,0,19.5,2.4,21.9,7.3c0,0-2.4,17.1-7.3,19.5c-4.9,2.4-12.2,17.1-7.3,17.1c4.9,0,19.5-21.9,19.5-26.8c0,0,2.4-9.7,0-9.7
	s9.7,2.4,12.2,12.2c0,0-12.2,26.8-29.2,39c0,0,0,7.3,7.3,2.4c7.3-4.9,29.2-31.7,26.8-39c-2.4-7.3,12.2,12.2,9.7,17.1
	c-2.4,4.9-12.2,19.5-17.1,21.9c-4.9,2.4-19.5,12.2-17.1,14.6c2.4,2.4,14.6-4.9,14.6-4.9s19.5-14.6,19.5-26.8
	c0-12.2,7.3,19.5,7.3,19.5s-26.8,24.4-36.5,21.9c0,0-4.9,4.9,19.5,2.4c0,0,7.3-2.4,9.7-9.7c2.4-7.3,4.9,12.2,2.4,14.6
	c0,0-9.7,7.3-12.2,4.9c-2.4-2.4-19.5-2.4-19.5,0s4.9,4.9,4.9,4.9s9.7,4.9,26.8-4.9c0,0,2.4,12.2-9.7,19.5c0,0-29.2-9.7-24.4-4.9
	c0,0,0,12.2,21.9,7.3c0,0-4.9,9.7-19.5,12.2c0,0-19.5-4.9-21.9-12.2c-2.4-7.3,0-9.7,0-12.2c0-2.4-2.4,4.9-2.4,9.7s0,17.1,0,17.1
	h-4.9L524.6,320.5z"/>
<path class="st21" d="M312.4,320.5c0,0-7.3,4.9-9.7,7.3c0,0-12.2,7.3-26.8-19.5c0,0,2.4,4.9,7.3,2.4c0,0,12.2-2.4,12.2-4.9
	c0-2.4-24.4,2.4-24.4,2.4s-12.2-2.4-12.2-17.1c0,0,17.1,4.9,34.1,2.4c0,0,7.3,0-19.5-7.3c-26.8-7.3-12.2-24.4-12.2-24.4
	s29.2,21.9,36.5,19.5c7.3-2.4-12.2-4.9-17.1-9.7c0,0-17.1-9.7-19.5-17.1c0,0,4.9-9.7,4.9-12.2s21.9,14.6,26.8,21.9
	c4.9,7.3,7.3,2.4,7.3,2.4s2.4-2.4-12.2-14.6c0,0-17.1-17.1-9.7-24.4c7.3-7.3,12.2-12.2,12.2-14.6c0-2.4,0,36.5,14.6,39
	c0,0,9.7,2.4-9.7-24.4c0,0-2.4-14.6,0-17.1c2.4-2.4,7.3-4.9,7.3-4.9s0,21.9,4.9,21.9s-2.4-19.5,0-21.9c0,0,4.9,0,7.3-4.9
	c0,0,19.5,2.4,21.9,7.3c0,0-2.4,17.1-7.3,19.5c-4.9,2.4-12.2,17.1-7.3,17.1c4.9,0,19.5-21.9,19.5-26.8c0,0,2.4-9.7,0-9.7
	c-2.4,0,9.7,2.4,12.2,12.2c0,0-12.2,26.8-29.2,39c0,0,0,7.3,7.3,2.4s29.2-31.7,26.8-39c-2.4-7.3,12.2,12.2,9.7,17.1
	c-2.4,4.9-12.2,19.5-17.1,21.9c-4.9,2.4-19.5,12.2-17.1,14.6c2.4,2.4,14.6-4.9,14.6-4.9s19.5-14.6,19.5-26.8
	c0-12.2,7.3,19.5,7.3,19.5s-26.8,24.4-36.5,21.9c0,0-4.9,4.9,19.5,2.4c0,0,7.3-2.4,9.7-9.7s4.9,12.2,2.4,14.6c0,0-9.7,7.3-12.2,4.9
	c-2.4-2.4-19.5-2.4-19.5,0s4.9,4.9,4.9,4.9s9.7,4.9,26.8-4.9c0,0,2.4,12.2-9.7,19.5c0,0-29.2-9.7-24.4-4.9c0,0,0,12.2,21.9,7.3
	c0,0-4.9,9.7-19.5,12.2c0,0-19.5-4.9-21.9-12.2c-2.4-7.3,0-9.7,0-12.2c0-2.4-2.4,4.9-2.4,9.7s0,17.1,0,17.1H310L312.4,320.5z"/>
<path class="st22" d="M46,470.1c0,0,13.1-56.9,30.7-61.3c17.5-4.4,30.7-13.1,30.7-13.1s48.2-13.1,70.1,35c0,0,13.1,26.3,8.8,35
	c0,0-9.1,17-44.5,18.8c0,0,4.7-49.6-16.6-50s-27.2,5.5-29.4,51.3C95.7,485.8,55.2,485.1,46,470.1z"/>
<path class="st4" d="M293.3,476.6c0,0-8.5-48.4,22.1-46.2c30.7,2.2,27.4,36.1,26.8,41.9C341.7,478,322,450,293.3,476.6z"/>
<path class="st23" d="M246,470.1c0,0,13.1-56.9,30.7-61.3c17.5-4.4,30.7-13.1,30.7-13.1s48.2-13.1,70.1,35c0,0,13.1,26.3,8.8,35
	c0,0-9.1,17-44.5,18.8c0,0,4.7-49.6-16.6-50s-27.2,5.5-29.4,51.3C295.7,485.8,255.1,485.1,246,470.1z"/>
<path class="st24" d="M504.5,476.6c0,0-8.5-48.4,22.1-46.2c30.7,2.2,27.4,36.1,26.8,41.9C553,478,533.3,450,504.5,476.6z"/>
<path class="st25" d="M458.1,470.1c0,0,13.1-56.9,30.7-61.3c17.5-4.4,30.7-13.1,30.7-13.1s48.2-13.1,70.1,35c0,0,13.1,26.3,8.8,35
	c0,0-9.1,17-44.5,18.8c0,0,4.7-49.6-16.6-50c-21.4-0.4-27.2,5.5-29.4,51.3C507.8,485.8,467.3,485.1,458.1,470.1z"/>
<g>
	<circle class="st26" cx="116.5" cy="591.5" r="70.4"/>
	<path class="st27" d="M93.9,567.6c0,0-0.3-15.4,21.6-15.4s20.7,16.5,20.7,16.5s-4.1,25.7-10.6,26c-6.5,0.3-15.1,2.1-17.1,0
		C106.3,592.7,95.7,584.4,93.9,567.6z"/>
	<path d="M99.1,591.5"/>
	<path class="st27" d="M103.3,621c0,0-23.3,10.9-31.2,3.3c0,0-6.4-8.4,1.1-18.8c0,0,9.5,7.1,16.8,4.4c10.1-3.7,14-14.2,19.3-12.8
		c4.2,1.1,7.9,10.2,4.2,17.1C109.1,618.7,103.3,621,103.3,621z"/>
	<path class="st27" d="M128.9,621c0,0,23.3,10.9,31.2,3.3c0,0,6.4-8.4-1.1-18.8c0,0-9.5,7.1-16.8,4.4c-10.1-3.7-14-14.2-19.3-12.8
		c-4.2,1.1-7.9,10.2-4.2,17.1C123.1,618.7,128.9,621,128.9,621z"/>
	<path class="st28" d="M107.7,600.4c0,0-7.8,1.9-14.2,9.4c-6.4,7.6-21.1,0.3-24.2-2.2s-18.6-15.4,1.9-30.4s36.3-8.7,35.9-1.6
		c-0.4,7.1,3.5,19.9,5.5,19.2c1.9-0.6,0,4.8,0,4.8L107.7,600.4z"/>
	<path class="st28" d="M124.4,600.4c0,0,7.8,1.9,14.2,9.4c6.4,7.6,21.1,0.3,24.2-2.2c3.1-2.5,18.6-15.4-1.9-30.4s-36.3-8.7-35.9-1.6
		c0.4,7.1-3.5,19.9-5.5,19.2c-1.9-0.6,0,4.8,0,4.8L124.4,600.4z"/>
	<path class="st29" d="M116.5,613.4c0,0-6.3,3-9.2,0.3c-2.8-2.7,4.9-14.7,3.6-15.1c-1.3-0.4-2.2-0.1-2.2-0.1s-0.2-2.1,1.6-1.5
		c1.8,0.7,1.8,7.3,2.2,8.3c0.4,0.9,2.5,1.7,3.5,4.1S117.2,611,116.5,613.4z"/>
	<path class="st30" d="M116.1,593.3c0,0-3.7-2-3.5,4c0.1,6.1-0.7,8.5-0.7,9.2s2.7,2.4,3.1,1.6c0.4-0.7-1,0.5-0.4,0.7
		s1.2,0.9,1.6,0.7C116.6,609.4,116.1,593.3,116.1,593.3z"/>
	<path class="st29" d="M115.5,613.4c0,0,6.3,3,9.2,0.3c2.8-2.7-4.9-14.7-3.6-15.1c1.3-0.4,2.2-0.1,2.2-0.1s0.2-2.1-1.6-1.5
		c-1.8,0.7-1.8,7.3-2.2,8.3c-0.4,0.9-2.5,1.7-3.5,4.1S114.7,611,115.5,613.4z"/>
	<path class="st30" d="M115.8,593.3c0,0,3.7-2,3.5,4c-0.1,6.1,0.7,8.5,0.7,9.2s-2.7,2.4-3.1,1.6s1,0.5,0.4,0.7
		c-0.6,0.3-1.2,0.9-1.6,0.7C115.4,609.4,115.8,593.3,115.8,593.3z"/>
	<path class="st31" d="M111.8,627.8c0,0,4.1,28.9,0,33.3c0,0,6.5,1.4,11.1,0c0,0-7.7-29.3-4.3-31.6
		C122,627.1,111.8,627.8,111.8,627.8z"/>
	<path class="st32" d="M112,613.4c0,0-6,4.8-8.3,4.7c-2.3-0.1-0.3,6,4.9,8.1c5.2,2.1,5,3.7,8,3.1v-16.9
		C116.5,612.3,113.8,611,112,613.4z"/>
	<path class="st32" d="M120.6,613.4c0,0,6,4.8,8.3,4.7c2.3-0.1,0.3,6-4.9,8.1c-5.2,2.1-5,3.7-8,3.1v-16.9
		C116,612.3,118.8,611,120.6,613.4z"/>
</g>
<g>
	<circle class="st33" cx="316.5" cy="590.6" r="70.4"/>
	<path class="st34" d="M293.9,566.6c0,0-0.3-15.4,21.6-15.4s20.7,16.5,20.7,16.5s-4.1,25.7-10.6,26s-15.1,2.1-17.1,0
		S295.7,583.5,293.9,566.6z"/>
	<path d="M299,590.6"/>
	<path class="st34" d="M303.3,620c0,0-23.3,10.9-31.2,3.3c0,0-6.4-8.4,1.1-18.8c0,0,9.5,7.1,16.8,4.4c10.1-3.7,14-14.2,19.3-12.8
		c4.2,1.1,7.9,10.2,4.2,17.1C309.1,617.8,303.3,620,303.3,620z"/>
	<path class="st34" d="M328.9,620c0,0,23.3,10.9,31.2,3.3c0,0,6.4-8.4-1.1-18.8c0,0-9.5,7.1-16.8,4.4c-10.1-3.7-14-14.2-19.3-12.8
		c-4.2,1.1-7.9,10.2-4.2,17.1C323.1,617.8,328.9,620,328.9,620z"/>
	<path class="st35" d="M307.7,599.4c0,0-7.8,1.9-14.2,9.4c-6.4,7.6-21.1,0.3-24.2-2.2c-3.1-2.5-18.6-15.4,1.9-30.4
		s36.3-8.7,35.9-1.6c-0.4,7.1,3.5,19.9,5.5,19.2c1.9-0.6,0,4.8,0,4.8L307.7,599.4z"/>
	<path class="st35" d="M324.4,599.4c0,0,7.8,1.9,14.2,9.4s21.1,0.3,24.2-2.2c3.1-2.5,18.6-15.4-1.9-30.4s-36.3-8.7-35.9-1.6
		c0.4,7.1-3.5,19.9-5.5,19.2c-1.9-0.6,0,4.8,0,4.8L324.4,599.4z"/>
	<path class="st36" d="M316.5,612.4c0,0-6.3,3-9.2,0.3s4.9-14.7,3.6-15.1s-2.2-0.1-2.2-0.1s-0.2-2.1,1.6-1.5s1.8,7.3,2.2,8.3
		s2.5,1.7,3.5,4.1C317.1,610.8,317.2,610.1,316.5,612.4z"/>
	<path class="st37" d="M316.1,592.3c0,0-3.7-2-3.5,4c0.1,6.1-0.7,8.5-0.7,9.2c0,0.6,2.7,2.4,3.1,1.6c0.4-0.7-1,0.5-0.4,0.7
		c0.6,0.3,1.2,0.9,1.6,0.7C316.5,608.4,316.1,592.3,316.1,592.3z"/>
	<path class="st36" d="M315.5,612.4c0,0,6.3,3,9.2,0.3s-4.9-14.7-3.6-15.1s2.2-0.1,2.2-0.1s0.2-2.1-1.6-1.5
		c-1.8,0.7-1.8,7.3-2.2,8.3c-0.4,0.9-2.5,1.7-3.5,4.1C314.8,610.8,314.7,610.1,315.5,612.4z"/>
	<path class="st37" d="M315.8,592.3c0,0,3.7-2,3.5,4c-0.1,6.1,0.7,8.5,0.7,9.2c0,0.6-2.7,2.4-3.1,1.6c-0.4-0.7,1,0.5,0.4,0.7
		s-1.2,0.9-1.6,0.7S315.8,592.3,315.8,592.3z"/>
	<path class="st31" d="M311.8,626.8c0,0,4.1,28.9,0,33.3c0,0,6.5,1.4,11.1,0c0,0-7.7-29.3-4.3-31.6
		C322,626.1,311.8,626.8,311.8,626.8z"/>
	<path class="st38" d="M312,612.5c0,0-6,4.8-8.3,4.7c-2.3-0.1-0.3,6,4.9,8.1c5.2,2.1,5,3.7,8,3.1v-16.9
		C316.5,611.4,313.8,610.1,312,612.5z"/>
	<path class="st38" d="M320.6,612.5c0,0,6,4.8,8.3,4.7s0.3,6-4.9,8.1c-5.2,2.1-5,3.7-8,3.1v-16.9C316,611.4,318.8,610.1,320.6,612.5
		z"/>
</g>
<path class="st39" d="M506,563.1c0,0-0.3-15.4,21.6-15.4c21.9,0,20.7,16.5,20.7,16.5s-4.1,25.7-10.6,26c-6.5,0.3-15.1,2.1-17.1,0
	S507.8,580,506,563.1z"/>
<path d="M511.2,587.1"/>
<path class="st39" d="M515.4,616.5c0,0-23.3,10.9-31.2,3.3c0,0-6.4-8.4,1.1-18.8c0,0,9.5,7.1,16.8,4.4c10.1-3.7,14-14.2,19.3-12.8
	c4.2,1.1,7.9,10.2,4.2,17.1C521.2,614.2,515.4,616.5,515.4,616.5z"/>
<path class="st39" d="M541,616.5c0,0,23.3,10.9,31.2,3.3c0,0,6.4-8.4-1.1-18.8c0,0-9.5,7.1-16.8,4.4c-10.1-3.7-14-14.2-19.3-12.8
	c-4.2,1.1-7.9,10.2-4.2,17.1C535.2,614.2,541,616.5,541,616.5z"/>
<path class="st39" d="M519.8,595.9c0,0-7.8,1.9-14.2,9.4s-21.1,0.3-24.2-2.2s-18.6-15.4,1.9-30.4c20.5-15.1,36.3-8.7,35.9-1.6
	c-0.4,7.1,3.5,19.9,5.5,19.2c1.9-0.6,0,4.8,0,4.8L519.8,595.9z"/>
<path class="st39" d="M536.5,595.9c0,0,7.8,1.9,14.2,9.4c6.4,7.6,21.1,0.3,24.2-2.2s18.6-15.4-1.9-30.4
	c-20.5-15.1-36.3-8.7-35.9-1.6c0.4,7.1-3.5,19.9-5.5,19.2c-1.9-0.6,0,4.8,0,4.8L536.5,595.9z"/>
<path class="st40" d="M528.6,608.9c0,0-6.3,3-9.2,0.3s4.9-14.7,3.6-15.1s-2.2-0.1-2.2-0.1s-0.2-2.1,1.6-1.5s1.8,7.3,2.2,8.3
	c0.4,0.9,2.5,1.7,3.5,4.1C529.2,607.3,529.3,606.6,528.6,608.9z"/>
<path class="st40" d="M528.2,588.8c0,0-3.7-2-3.5,4s-0.7,8.5-0.7,9.2c0,0.6,2.7,2.4,3.1,1.6s-1,0.5-0.4,0.7s1.2,0.9,1.6,0.7
	C528.7,604.9,528.2,588.8,528.2,588.8z"/>
<path class="st40" d="M527.6,608.9c0,0,6.3,3,9.2,0.3s-4.9-14.7-3.6-15.1s2.2-0.1,2.2-0.1s0.2-2.1-1.6-1.5c-1.8,0.7-1.8,7.3-2.2,8.3
	s-2.5,1.7-3.5,4.1S526.8,606.6,527.6,608.9z"/>
<path class="st40" d="M527.9,588.8c0,0,3.7-2,3.5,4s0.7,8.5,0.7,9.2c0,0.6-2.7,2.4-3.1,1.6s1,0.5,0.4,0.7s-1.2,0.9-1.6,0.7
	S527.9,588.8,527.9,588.8z"/>
<path class="st39" d="M523.7,621.9c0,0,4.1,28.9,0,33.3c0,0,6.5,1.4,11.1,0c0,0-7.7-29.3-4.3-31.6S523.7,621.9,523.7,621.9z"/>
<path class="st39" d="M524.1,609c0,0-6,4.8-8.3,4.7c-2.3-0.1-0.3,6,4.9,8.1c5.2,2.1,5,3.7,8,3.1v-16.9
	C528.7,607.9,525.9,606.5,524.1,609z"/>
<path class="st39" d="M532.7,609c0,0,6,4.8,8.3,4.7c2.3-0.1,0.3,6-4.9,8.1s-5,3.7-8,3.1v-16.9C528.2,607.9,530.9,606.5,532.7,609z"
	/>
<path class="st7" d="M528.7,183.9"/>
<g>
	<path class="st41" d="M528.7,114.4H452c0,0,18.1,44.1,76.7,42c58.6,2.2,76.7-42,76.7-42H528.7z"/>
	<path class="st9" d="M527.9,65.9"/>
	<path class="st42" d="M607.5,103.5c-59.3-42-78.8-38.3-78.8-38.3s-19.5-3.6-78.8,38.3c0,0-6.5,6.5,2.9,12.3h76h76
		C614,110,607.5,103.5,607.5,103.5z"/>
	<path class="st43" d="M529.4,115.8h-1.4h-75.2c0,0,1.4,9.4,10.1,10.1c8.4,0.7,48.3-8.1,65.1-5.3v0.2c0.2,0,0.5-0.1,0.7-0.1
		c0.2,0,0.5,0.1,0.7,0.1v-0.2c16.8-2.8,56.7,6,65.1,5.3c8.7-0.7,10.1-10.1,10.1-10.1H529.4z"/>
	<path class="st44" d="M468.6,57.9c0,0-23.1,21,4.3,37.6c0,0,17.5,1.5,20-9.7S480.9,44.2,468.6,57.9z"/>
	<path class="st45" d="M467.9,57.9c3.3-3.8,6.7-5.2,8.7-5.8c9.6-2.7,21.8,3.8,29.7,16.6c0,0,5.2,7.7-5.8,18.8
		c-0.8,0.8-5.3,3.5-10.1,5.1c-3.5,1.1-14.5,2.8-10.9,2.2l0,0c10.4-4.4,12.3-8,12.3-8c2-3.7,0.4-8-1.4-13
		c-1.4-3.9-4.4-10.2-10.9-16.6c-0.6-0.6-1.8-1.7-3.6-2.2C473.1,54.4,470,55.5,467.9,57.9z"/>
	<path d="M461.4,82.5c0,0,23.1,2.2,22.4-7.2c-0.7-9.4-18.1-10.1-21-8C459.9,69.5,458.5,78.2,461.4,82.5z"/>
	<path class="st44" d="M592.4,57.2c0,0,23.1,21-4.3,37.6c0,0-17.5,1.5-20-9.7C565.6,73.9,580.1,43.5,592.4,57.2z"/>
	<path class="st45" d="M593.1,57.2c-3.3-3.8-6.7-5.2-8.7-5.8c-9.6-2.7-21.8,3.8-29.7,16.6c0,0-5.2,7.7,5.8,18.8
		c0.8,0.8,5.3,3.5,10.1,5.1c3.5,1.1,14.5,2.8,10.9,2.2l0,0c-10.4-4.4-12.3-8-12.3-8c-2-3.7-0.4-8,1.4-13c1.4-3.9,4.4-10.2,10.9-16.6
		c0.6-0.6,1.8-1.7,3.6-2.2C587.9,53.7,591,54.8,593.1,57.2z"/>
	<path d="M599.6,81.8c0,0-23.1,2.2-22.4-7.2c0.7-9.4,18.1-10.1,21-8C601.1,68.8,602.5,77.5,599.6,81.8z"/>
	<ellipse cx="516" cy="99.5" rx="3.3" ry="4"/>
	<ellipse cx="537.7" cy="99.5" rx="3.3" ry="4"/>
</g>
<path class="st4" d="M341.4,472.2"/>
</svg>
