<?xml version="1.0" encoding="utf-8"?>
<!-- Generator: Adobe Illustrator 22.1.0, SVG Export Plug-In . SVG Version: 6.00 Build 0)  -->
<svg version="1.1" id="Layer_1" xmlns="http://www.w3.org/2000/svg" xmlns:xlink="http://www.w3.org/1999/xlink" x="0px" y="0px"
	 viewBox="0 0 96 47.4" style="enable-background:new 0 0 96 47.4;" xml:space="preserve">
<style type="text/css">
	.st0{fill:#686868;}
</style>
<title>small-eye</title>
<g id="Layer_2_1_">
	<g id="Layer_1-2">
		<path class="st0" d="M95.6,25.6c-4-7.3-11.3-14-20.5-18.7C66.7,2.5,57.5,0.1,48,0c-9.4,0.2-18.7,2.6-27.1,6.9
			C11.7,11.6,4.4,18.3,0.4,25.6c-0.9,1.6-0.3,3.6,1.3,4.5c0,0,0.1,0,0.1,0.1c0.5,0.3,1,0.4,1.6,0.4c1.3,0,2.4-0.7,3-1.8
			c5.2-9.5,16-16.4,27.1-19.7c-9.1,8-9.9,21.8-1.9,30.9s21.8,9.9,30.9,1.9s9.9-21.8,1.9-30.9c-0.6-0.7-1.2-1.3-1.9-1.9
			c11,3.4,21.9,10.2,27.1,19.7c0.6,1.1,1.7,1.8,3,1.8c0.6,0,1.1-0.1,1.6-0.4C95.9,29.3,96.5,27.3,95.6,25.6
			C95.6,25.6,95.6,25.6,95.6,25.6z M48,18.4c-3.9,0-7.1,3.2-7.1,7.1c0,1.8-1.5,3.3-3.3,3.3c-1.8,0-3.3-1.5-3.3-3.3
			c0-7.5,6.1-13.7,13.6-13.7c0,0,0.1,0,0.1,0c1.8,0,3.3,1.5,3.3,3.3C51.3,16.9,49.8,18.4,48,18.4z"/>
	</g>
</g>
</svg>
