<svg id="Layer_1" data-name="Layer 1" xmlns="http://www.w3.org/2000/svg" xmlns:xlink="http://www.w3.org/1999/xlink" viewBox="0 0 112 105.33"><defs><style>.cls-1,.cls-22,.cls-24,.cls-26,.cls-38,.cls-39,.cls-4{fill:none;}.cls-2{clip-path:url(#clip-path);}.cls-3{fill:#333104;}.cls-22,.cls-38,.cls-39,.cls-4{stroke:#000;}.cls-22,.cls-24,.cls-26,.cls-38,.cls-39,.cls-4{stroke-miterlimit:10;}.cls-4{stroke-width:0.42px;}.cls-5{fill:#dfed7a;}.cls-6{fill:#8fef78;}.cls-7{fill:#79bff2;}.cls-8{fill:#1873d6;}.cls-9{fill:#a5d5f2;}.cls-10{fill:#52a1e8;}.cls-11{fill:#063056;}.cls-12{fill:#ed4850;}.cls-13{fill:#7f0a1e;}.cls-14{fill:#f79caa;}.cls-15{fill:#7c0a2b;}.cls-16{fill:#350606;}.cls-17{fill:#088708;}.cls-18{fill:#fff;}.cls-19{fill:#7c790e;}.cls-20{fill:#7f5005;}.cls-21{fill:#939393;}.cls-22{stroke-width:0.83px;}.cls-23{fill:#8fea9c;}.cls-24,.cls-26{stroke:#fff;}.cls-24,.cls-38{stroke-width:0.21px;}.cls-25{fill:#3d0335;}.cls-26,.cls-39{stroke-width:0.08px;}.cls-27{fill:#b50d95;}.cls-28{fill:#ad0cc4;}.cls-29{fill:#eaace4;}.cls-30{fill:#095b13;}.cls-31{fill:#e530d4;}.cls-32{fill:#91dbe8;}.cls-33{fill:#0a208e;}.cls-34{fill:#0f80b2;}.cls-35{fill:#7583cc;}.cls-36{fill:#a0efef;}.cls-37{fill:#33dae2;}.cls-40{fill:#aaa;}.cls-41{fill:#3a3a3a;}.cls-42{fill:#bcbcbc;}.cls-43{fill:#6b6b6b;}.cls-44{fill:#848484;}</style><clipPath id="clip-path"><rect class="cls-1" x="7.33" y="4.42" width="97.66" height="98.49"/></clipPath></defs><title>frog-icons</title><g class="cls-2"><g class="cls-2"><path class="cls-3" d="M22.41,70.55s-.67-7,3.76-6.68,3.63,5.3,3.55,6.12-3.16-3.28-7.31.56"/><path d="M97.4,40.58a12.05,12.05,0,1,1-12.05-12,12.05,12.05,0,0,1,12.05,12"/><circle class="cls-4" cx="85.35" cy="40.58" r="12.05"/><path class="cls-5" d="M66.8,40.58a12.06,12.06,0,1,1-12.06-12,12.06,12.06,0,0,1,12.06,12"/><path class="cls-6" d="M37.94,40.58a12,12,0,1,1-12-12,12.06,12.06,0,0,1,12,12"/><path class="cls-7" d="M14.14,18.27s2.61,6.37,11.06,6.06V18.27Z"/><path class="cls-7" d="M36.27,18.27s-2.61,6.37-11.07,6.06V18.27Z"/><path class="cls-8" d="M25.2,11.17s-2.81-.52-11.37,5.54c0,0-.94.94.41,1.77h11Z"/><path class="cls-8" d="M25.2,11.17s2.82-.52,11.38,5.54c0,0,.94.94-.42,1.77h-11Z"/><path class="cls-9" d="M14.24,18.48a1.73,1.73,0,0,0,1.47,1.46c1.25.11,7.3-1.25,9.6-.73v-.73H14.24"/><path class="cls-9" d="M36.16,18.48a1.71,1.71,0,0,1-1.46,1.46c-1.25.11-7.3-1.25-9.6-.73v-.73H36.16"/><path class="cls-8" d="M16.54,10.13s-3.34,3,.63,5.43c0,0,2.53.22,2.88-1.4s-1.73-6-3.51-4"/><path class="cls-10" d="M16.44,10.13a2.56,2.56,0,0,1,1.25-.83c1.38-.4,3.14.54,4.28,2.4,0,0,.76,1.1-.84,2.71a5,5,0,0,1-1.46.73,11.67,11.67,0,0,1-1.56.31c1.5-.63,1.77-1.14,1.77-1.14a2.35,2.35,0,0,0-.21-1.88A6.43,6.43,0,0,0,18.11,10a1.07,1.07,0,0,0-.53-.32,1.19,1.19,0,0,0-1.14.42"/><path d="M15.5,13.68s3.34.31,3.23-1-2.61-1.46-3-1.15a2,2,0,0,0-.21,2.19"/><path class="cls-8" d="M34.4,10s3.34,3-.62,5.42c0,0-2.53.23-2.89-1.4s1.74-6,3.51-4"/><path class="cls-10" d="M34.51,10a2.55,2.55,0,0,0-1.26-.84c-1.38-.39-3.14.55-4.28,2.4,0,0-.75,1.11.84,2.72a5,5,0,0,0,1.46.73,11.59,11.59,0,0,0,1.57.31c-1.51-.63-1.78-1.15-1.78-1.15-.28-.53,0-1.15.21-1.88a6.49,6.49,0,0,1,1.57-2.4,1,1,0,0,1,.52-.31,1.18,1.18,0,0,1,1.15.42"/><path d="M35.45,13.58s-3.34.31-3.24-1.05,2.61-1.46,3-1.15a2.07,2.07,0,0,1,.21,2.2"/><path class="cls-11" d="M23.85,16.13a.48.48,0,1,1-.47-.57.53.53,0,0,1,.47.57"/><path class="cls-11" d="M27,16.13a.48.48,0,1,1-.47-.57.53.53,0,0,1,.47.57"/><path class="cls-12" d="M43.68,18s2.61,6.37,11.06,6.06V18Z"/><path class="cls-12" d="M65.81,18s-2.61,6.37-11.07,6.06V18Z"/><path class="cls-13" d="M54.74,10.89s-2.81-.52-11.37,5.54c0,0-.94.94.42,1.77h11Z"/><path class="cls-13" d="M54.74,10.89s2.82-.52,11.38,5.54c0,0,.94.94-.42,1.77h-11Z"/><path class="cls-14" d="M43.79,18.2a1.71,1.71,0,0,0,1.46,1.46c1.25.11,7.3-1.25,9.6-.73V18.2H43.79"/><path class="cls-14" d="M65.7,18.2a1.71,1.71,0,0,1-1.46,1.46c-1.25.11-7.3-1.25-9.6-.73V18.2H65.7"/><path class="cls-15" d="M46.08,9.85s-3.34,3,.63,5.43c0,0,2.53.22,2.88-1.4s-1.73-6-3.51-4"/><path class="cls-12" d="M46,9.85A2.68,2.68,0,0,1,47.23,9c1.38-.39,3.14.55,4.28,2.41,0,0,.76,1.1-.84,2.71a5,5,0,0,1-1.46.73,11.67,11.67,0,0,1-1.56.31c1.5-.63,1.77-1.14,1.77-1.14a2.35,2.35,0,0,0-.21-1.88,6.43,6.43,0,0,0-1.56-2.4,1.07,1.07,0,0,0-.53-.32A1.2,1.2,0,0,0,46,9.85"/><path d="M45,13.4s3.34.31,3.23-1-2.61-1.47-3-1.15A2,2,0,0,0,45,13.4"/><path class="cls-15" d="M63.94,9.75s3.34,3-.62,5.42c0,0-2.53.23-2.89-1.4s1.74-6,3.51-4"/><path class="cls-12" d="M64.05,9.75a2.5,2.5,0,0,0-1.26-.84c-1.38-.39-3.14.55-4.27,2.4,0,0-.76,1.11.83,2.72a5.3,5.3,0,0,0,1.46.73,14.08,14.08,0,0,0,1.57.31c-1.51-.63-1.78-1.15-1.78-1.15-.28-.53-.05-1.15.21-1.88a6.49,6.49,0,0,1,1.57-2.4,1,1,0,0,1,.52-.31,1.18,1.18,0,0,1,1.15.42"/><path d="M65,13.3s-3.34.31-3.24-1.05,2.61-1.46,3-1.15A2.05,2.05,0,0,1,65,13.3"/><path class="cls-16" d="M53.39,15.85a.48.48,0,1,1-.47-.57.53.53,0,0,1,.47.57"/><path class="cls-16" d="M56.52,15.85a.48.48,0,1,1-.47-.57.53.53,0,0,1,.47.57"/><path class="cls-17" d="M25.3,48a13.76,13.76,0,0,0-1.41,1S22.13,50.13,20,46.27a.77.77,0,0,0,1.06.35s1.76-.35,1.76-.7-3.52.35-3.52.35a2.35,2.35,0,0,1-1.76-2.46,13.5,13.5,0,0,0,4.92.35s1.06,0-2.81-1.06-1.76-3.51-1.76-3.51,4.22,3.16,5.28,2.81-1.76-.7-2.46-1.41c0,0-2.46-1.4-2.82-2.46a8.91,8.91,0,0,0,.71-1.75c0-.36,3.16,2.1,3.86,3.16s1.06.35,1.06.35.35-.35-1.76-2.11c0,0-2.46-2.46-1.41-3.51s1.76-1.76,1.76-2.11,0,5.27,2.11,5.62c0,0,1.41.35-1.4-3.51,0,0-.36-2.11,0-2.46a4.82,4.82,0,0,1,1.05-.71s0,3.17.7,3.17-.35-2.82,0-3.17a1.25,1.25,0,0,0,1.06-.7s2.81.35,3.16,1.05c0,0-.35,2.47-1,2.82S26,37.13,26.7,37.13s2.81-3.17,2.81-3.87c0,0,.36-1.41,0-1.41s1.41.36,1.76,1.76c0,0-1.76,3.87-4.22,5.63,0,0,0,1,1.06.35S32.33,35,32,34s1.75,1.76,1.4,2.46a10.89,10.89,0,0,1-2.46,3.17c-.7.35-2.81,1.76-2.46,2.11S30.57,41,30.57,41s2.81-2.11,2.81-3.86,1.06,2.81,1.06,2.81-3.87,3.51-5.28,3.16c0,0-.7.71,2.82.35a2.39,2.39,0,0,0,1.4-1.4c.35-1.06.7,1.76.35,2.11,0,0-1.4,1.05-1.75.7s-2.82-.35-2.82,0,.71.7.71.7,1.4.71,3.86-.7a2.77,2.77,0,0,1-1.4,2.81s-4.22-1.4-3.52-.7c0,0,0,1.76,3.17,1.06a3.83,3.83,0,0,1-2.82,1.75S26.35,49.08,26,48a2.76,2.76,0,0,1,0-1.76c0-.35-.35.7-.35,1.4v2.46h-.71Z"/><path class="cls-18" d="M84.76,48a13.76,13.76,0,0,0-1.41,1s-1.75,1.05-3.86-2.81a.77.77,0,0,0,1.05.35s1.76-.35,1.76-.7-3.52.35-3.52.35A2.35,2.35,0,0,1,77,43.81a13.5,13.5,0,0,0,4.92.35s1,0-2.82-1.06-1.75-3.51-1.75-3.51,4.22,3.16,5.27,2.81-1.76-.7-2.46-1.41c0,0-2.46-1.4-2.81-2.46a9,9,0,0,0,.7-1.75c0-.36,3.16,2.1,3.87,3.16s1,.35,1,.35.35-.35-1.76-2.11c0,0-2.46-2.46-1.4-3.51s1.76-1.76,1.76-2.11,0,5.27,2.1,5.62c0,0,1.41.35-1.4-3.51,0,0-.35-2.11,0-2.46a4.82,4.82,0,0,1,1-.71s0,3.17.71,3.17-.36-2.82,0-3.17a1.24,1.24,0,0,0,1-.7s2.81.35,3.16,1.05c0,0-.35,2.47-1,2.82s-1.76,2.46-1,2.46S89,34,89,33.26c0,0,.35-1.41,0-1.41s1.4.36,1.76,1.76c0,0-1.76,3.87-4.22,5.63,0,0,0,1,1,.35S91.79,35,91.44,34s1.76,1.76,1.41,2.46a10.92,10.92,0,0,1-2.47,3.17c-.7.35-2.81,1.76-2.46,2.11S90,41,90,41s2.82-2.11,2.82-3.86,1.05,2.81,1.05,2.81S90,43.45,88.63,43.1c0,0-.71.71,2.81.35a2.42,2.42,0,0,0,1.41-1.4c.35-1.06.7,1.76.35,2.11,0,0-1.41,1.05-1.76.7s-2.81-.35-2.81,0,.7.7.7.7,1.41.71,3.87-.7a2.77,2.77,0,0,1-1.41,2.81s-4.22-1.4-3.52-.7c0,0,0,1.76,3.17,1.06a3.8,3.8,0,0,1-2.81,1.75s-2.82-.7-3.17-1.75a2.76,2.76,0,0,1,0-1.76c0-.35-.35.7-.35,1.4v2.46h-.7Z"/><path class="cls-4" d="M84.76,48a13.76,13.76,0,0,0-1.41,1s-1.75,1.05-3.86-2.81a.77.77,0,0,0,1.05.35s1.76-.35,1.76-.7-3.52.35-3.52.35A2.35,2.35,0,0,1,77,43.81a13.5,13.5,0,0,0,4.92.35s1,0-2.82-1.06-1.75-3.51-1.75-3.51,4.22,3.16,5.27,2.81-1.76-.7-2.46-1.41c0,0-2.46-1.4-2.81-2.46a9,9,0,0,0,.7-1.75c0-.36,3.16,2.1,3.87,3.16s1,.35,1,.35.35-.35-1.76-2.11c0,0-2.46-2.46-1.4-3.51s1.76-1.76,1.76-2.11,0,5.27,2.1,5.62c0,0,1.41.35-1.4-3.51,0,0-.35-2.11,0-2.46a4.82,4.82,0,0,1,1-.71s0,3.17.71,3.17-.36-2.82,0-3.17a1.24,1.24,0,0,0,1-.7s2.81.35,3.16,1.05c0,0-.35,2.47-1,2.82s-1.76,2.46-1,2.46S89,34,89,33.26c0,0,.35-1.41,0-1.41s1.4.36,1.76,1.76c0,0-1.76,3.87-4.22,5.63,0,0,0,1,1,.35S91.79,35,91.44,34s1.76,1.76,1.41,2.46a10.92,10.92,0,0,1-2.47,3.17c-.7.35-2.81,1.76-2.46,2.11S90,41,90,41s2.82-2.11,2.82-3.86,1.05,2.81,1.05,2.81S90,43.45,88.63,43.1c0,0-.71.71,2.81.35a2.42,2.42,0,0,0,1.41-1.4c.35-1.06.7,1.76.35,2.11,0,0-1.41,1.05-1.76.7s-2.81-.35-2.81,0,.7.7.7.7,1.41.71,3.87-.7a2.77,2.77,0,0,1-1.41,2.81s-4.22-1.4-3.52-.7c0,0,0,1.76,3.17,1.06a3.8,3.8,0,0,1-2.81,1.75s-2.82-.7-3.17-1.75a2.76,2.76,0,0,1,0-1.76c0-.35-.35.7-.35,1.4v2.46h-.7Z"/><path class="cls-19" d="M54.15,48a14,14,0,0,0-1.4,1S51,50.13,48.88,46.27a.77.77,0,0,0,1,.35s1.76-.35,1.76-.7-3.51.35-3.51.35a2.35,2.35,0,0,1-1.76-2.46,13.5,13.5,0,0,0,4.92.35s1,0-2.81-1.06-1.76-3.51-1.76-3.51S51,42.75,52,42.4s-1.75-.7-2.46-1.41c0,0-2.46-1.4-2.81-2.46a9,9,0,0,0,.7-1.75c0-.36,3.17,2.1,3.87,3.16s1,.35,1,.35.36-.35-1.75-2.11c0,0-2.46-2.46-1.41-3.51S51,32.91,51,32.56s0,5.27,2.11,5.62c0,0,1.4.35-1.41-3.51,0,0-.35-2.11,0-2.46a4.79,4.79,0,0,1,1.06-.71s0,3.17.7,3.17-.35-2.82,0-3.17a1.24,1.24,0,0,0,1-.7s2.82.35,3.17,1.05c0,0-.35,2.47-1.06,2.82s-1.75,2.46-1,2.46,2.81-3.17,2.81-3.87c0,0,.35-1.41,0-1.41s1.41.36,1.76,1.76c0,0-1.76,3.87-4.22,5.63,0,0,0,1,1.06.35S61.18,35,60.83,34s1.76,1.76,1.41,2.46a10.89,10.89,0,0,1-2.46,3.17c-.71.35-2.81,1.76-2.46,2.11S59.43,41,59.43,41s2.81-2.11,2.81-3.86,1,2.81,1,2.81S59.43,43.45,58,43.1c0,0-.7.71,2.81.35a2.4,2.4,0,0,0,1.41-1.4c.35-1.06.7,1.76.35,2.11,0,0-1.41,1.05-1.76.7s-2.81-.35-2.81,0,.7.7.7.7,1.41.71,3.87-.7a2.77,2.77,0,0,1-1.41,2.81S57,46.27,57.67,47c0,0,0,1.76,3.16,1.06A3.8,3.8,0,0,1,58,49.78s-2.81-.7-3.16-1.75a2.69,2.69,0,0,1,0-1.76c0-.35-.36.7-.36,1.4v2.46h-.7Z"/><path class="cls-20" d="M15.71,69.62s1.9-8.22,4.43-8.85a15.68,15.68,0,0,0,4.42-1.9,8.69,8.69,0,0,1,10.11,5.06s1.9,3.79,1.26,5.06c0,0-1.31,2.44-6.42,2.71,0,0,.68-7.16-2.4-7.22s-3.92.79-4.24,7.4c0,0-5.84-.1-7.16-2.26"/><path class="cls-3" d="M51.39,70.55s-1.23-7,3.19-6.67,4,5.21,3.87,6-2.91-3.21-7.06.63"/><path class="cls-21" d="M44.57,69.62s1.9-8.22,4.42-8.85a15.66,15.66,0,0,0,4.43-1.9,8.69,8.69,0,0,1,10.11,5.06s1.89,3.79,1.26,5.06c0,0-1.32,2.44-6.42,2.71,0,0,.68-7.16-2.4-7.22s-3.92.79-4.24,7.4c0,0-5.84-.1-7.16-2.26"/><path d="M81.87,70.55s-1.23-7,3.2-6.67,4,5.21,3.87,6-2.92-3.21-7.07.63"/><path class="cls-22" d="M81.87,70.55s-1.23-7,3.2-6.67,4,5.21,3.87,6S86,66.71,81.87,70.55Z"/><path class="cls-18" d="M75.18,69.62s1.89-8.22,4.42-8.85A15.51,15.51,0,0,0,84,58.87a8.69,8.69,0,0,1,10.11,5.06S96,67.72,95.4,69c0,0-1.32,2.44-6.43,2.71,0,0,.69-7.16-2.39-7.22s-3.93.79-4.24,7.4c0,0-5.85-.1-7.16-2.26"/><path class="cls-22" d="M75.18,69.62s1.89-8.22,4.42-8.85A15.51,15.51,0,0,0,84,58.87a8.69,8.69,0,0,1,10.11,5.06S96,67.72,95.4,69c0,0-1.32,2.44-6.43,2.71,0,0,.69-7.16-2.39-7.22s-3.93.79-4.24,7.4C82.34,71.88,76.49,71.78,75.18,69.62Z"/><path class="cls-23" d="M36,87.13A10.16,10.16,0,1,1,25.89,77,10.15,10.15,0,0,1,36,87.13"/><circle class="cls-24" cx="25.89" cy="87.13" r="10.15"/><path class="cls-25" d="M22.62,83.68s0-2.21,3.11-2.21,3,2.38,3,2.38-.59,3.71-1.53,3.75-2.17.3-2.47,0a6,6,0,0,1-2.09-3.92"/><path class="cls-26" d="M22.62,83.68s0-2.21,3.11-2.21,3,2.38,3,2.38-.59,3.71-1.53,3.75-2.17.3-2.47,0A6,6,0,0,1,22.62,83.68Z"/><path class="cls-25" d="M24,91.39s-3.35,1.57-4.51.48a2.3,2.3,0,0,1,.16-2.72s1.38,1,2.43.64c1.47-.53,2-2.05,2.78-1.85.61.15,1.14,1.47.61,2.46a4.64,4.64,0,0,1-1.47,1"/><path class="cls-26" d="M24,91.39s-3.35,1.57-4.51.48a2.3,2.3,0,0,1,.16-2.72s1.38,1,2.43.64c1.47-.53,2-2.05,2.78-1.85.61.15,1.14,1.47.61,2.46A4.64,4.64,0,0,1,24,91.39Z"/><path class="cls-25" d="M27.67,91.39s3.35,1.57,4.5.48A2.28,2.28,0,0,0,32,89.15s-1.37,1-2.42.64c-1.47-.53-2-2.05-2.79-1.85-.6.15-1.13,1.47-.6,2.46a4.64,4.64,0,0,0,1.47,1"/><path class="cls-26" d="M27.67,91.39s3.35,1.57,4.5.48A2.28,2.28,0,0,0,32,89.15s-1.37,1-2.42.64c-1.47-.53-2-2.05-2.79-1.85-.6.15-1.13,1.47-.6,2.46A4.64,4.64,0,0,0,27.67,91.39Z"/><path class="cls-27" d="M24.61,88.41a4.27,4.27,0,0,0-2.05,1.36c-.91,1.09-3,0-3.49-.31s-2.69-2.22.27-4.39,5.25-1.26,5.18-.24.51,2.87.79,2.78,0,.7,0,.7Z"/><path class="cls-24" d="M24.61,88.41a4.27,4.27,0,0,0-2.05,1.36c-.91,1.09-3,0-3.49-.31s-2.69-2.22.27-4.39,5.25-1.26,5.18-.24.51,2.87.79,2.78,0,.7,0,.7Z"/><path class="cls-27" d="M27,88.41a4.22,4.22,0,0,1,2,1.36c.92,1.09,3.05,0,3.5-.31s2.68-2.22-.28-4.39S27,83.81,27.1,84.83s-.51,2.87-.79,2.78,0,.7,0,.7Z"/><path class="cls-24" d="M27,88.41a4.22,4.22,0,0,1,2,1.36c.92,1.09,3.05,0,3.5-.31s2.68-2.22-.28-4.39S27,83.81,27.1,84.83s-.51,2.87-.79,2.78,0,.7,0,.7Z"/><path class="cls-28" d="M25.88,90.29s-.92.43-1.33,0,.72-2.12.53-2.18a.52.52,0,0,0-.32,0s0-.31.23-.21.26,1.06.32,1.19.37.25.51.59.16.23.06.57"/><path class="cls-26" d="M25.88,90.29s-.92.43-1.33,0,.72-2.12.53-2.18a.52.52,0,0,0-.32,0s0-.31.23-.21.26,1.06.32,1.19.37.25.51.59S26,90,25.88,90.29Z"/><path class="cls-29" d="M25.82,87.39s-.53-.29-.51.58a5.64,5.64,0,0,1-.11,1.33c0,.09.39.34.45.23s-.15.07-.06.11.17.14.23.11,0-2.36,0-2.36"/><path class="cls-28" d="M25.73,90.29s.91.43,1.32,0-.71-2.12-.52-2.18a.53.53,0,0,1,.32,0s0-.31-.23-.21-.26,1.06-.33,1.19-.36.25-.51.59-.16.23-.05.57"/><path class="cls-26" d="M25.73,90.29s.91.43,1.32,0-.71-2.12-.52-2.18a.53.53,0,0,1,.32,0s0-.31-.23-.21-.26,1.06-.33,1.19-.36.25-.51.59S25.62,90,25.73,90.29Z"/><path class="cls-29" d="M25.79,87.39s.53-.29.51.58a5.38,5.38,0,0,0,.1,1.33c0,.09-.38.34-.44.23s.14.07.06.11-.17.14-.23.11,0-2.36,0-2.36"/><path class="cls-30" d="M25.2,92.36s.6,4.18,0,4.8a3.76,3.76,0,0,0,1.61,0s-1.11-4.23-.62-4.56-1-.24-1-.24"/><path class="cls-31" d="M25.23,90.3S24.37,91,24,91s0,.86.71,1.17.72.52,1.15.44V90.14a.54.54,0,0,0-.66.16"/><path class="cls-31" d="M26.47,90.3s.86.69,1.2.67,0,.86-.7,1.17-.72.52-1.15.44V90.14a.53.53,0,0,1,.65.16"/><path class="cls-32" d="M64.9,87A10.16,10.16,0,1,1,54.74,76.84,10.15,10.15,0,0,1,64.9,87"/><circle class="cls-24" cx="54.74" cy="87" r="10.15"/><path class="cls-33" d="M51.48,83.54s0-2.21,3.11-2.21,3,2.39,3,2.39S57,87.42,56,87.47s-2.18.29-2.48,0a6,6,0,0,1-2.08-3.93"/><path class="cls-26" d="M51.48,83.54s0-2.21,3.11-2.21,3,2.39,3,2.39S57,87.42,56,87.47s-2.18.29-2.48,0A6,6,0,0,1,51.48,83.54Z"/><path class="cls-33" d="M52.84,91.25s-3.36,1.57-4.51.48A2.28,2.28,0,0,1,48.49,89s1.37,1,2.43.64c1.46-.53,2-2,2.78-1.85.61.15,1.13,1.47.61,2.46a4.64,4.64,0,0,1-1.47,1"/><path class="cls-26" d="M52.84,91.25s-3.36,1.57-4.51.48A2.28,2.28,0,0,1,48.49,89s1.37,1,2.43.64c1.46-.53,2-2,2.78-1.85.61.15,1.13,1.47.61,2.46A4.64,4.64,0,0,1,52.84,91.25Z"/><path class="cls-33" d="M56.52,91.25s3.36,1.57,4.51.48A2.28,2.28,0,0,0,60.87,89s-1.37,1-2.43.64c-1.46-.53-2-2-2.78-1.85-.6.15-1.13,1.47-.61,2.46a4.76,4.76,0,0,0,1.47,1"/><path class="cls-26" d="M56.52,91.25s3.36,1.57,4.51.48A2.28,2.28,0,0,0,60.87,89s-1.37,1-2.43.64c-1.46-.53-2-2-2.78-1.85-.6.15-1.13,1.47-.61,2.46A4.76,4.76,0,0,0,56.52,91.25Z"/><path class="cls-34" d="M53.46,88.28a4.27,4.27,0,0,0-2,1.36c-.92,1.09-3.05,0-3.5-.32s-2.68-2.22.28-4.39,5.24-1.26,5.18-.24.51,2.87.79,2.78,0,.7,0,.7Z"/><path class="cls-24" d="M53.46,88.28a4.27,4.27,0,0,0-2,1.36c-.92,1.09-3.05,0-3.5-.32s-2.68-2.22.28-4.39,5.24-1.26,5.18-.24.51,2.87.79,2.78,0,.7,0,.7Z"/><path class="cls-34" d="M55.87,88.28a4.27,4.27,0,0,1,2.05,1.36c.91,1.09,3,0,3.49-.32s2.69-2.22-.27-4.39-5.25-1.26-5.18-.24-.51,2.87-.79,2.78,0,.7,0,.7Z"/><path class="cls-24" d="M55.87,88.28a4.27,4.27,0,0,1,2.05,1.36c.91,1.09,3,0,3.49-.32s2.69-2.22-.27-4.39-5.25-1.26-5.18-.24-.51,2.87-.79,2.78,0,.7,0,.7Z"/><path class="cls-35" d="M54.73,90.15s-.91.43-1.32,0,.71-2.12.53-2.18a.63.63,0,0,0-.32,0s0-.31.23-.21.26,1.06.32,1.19.37.26.51.59.16.23,0,.57"/><path class="cls-26" d="M54.73,90.15s-.91.43-1.32,0,.71-2.12.53-2.18a.63.63,0,0,0-.32,0s0-.31.23-.21.26,1.06.32,1.19.37.26.51.59S54.84,89.81,54.73,90.15Z"/><path class="cls-36" d="M54.68,87.25s-.53-.29-.51.59a5.6,5.6,0,0,1-.11,1.32c0,.09.38.34.45.23s-.15.07-.07.11.17.14.24.11,0-2.36,0-2.36"/><path class="cls-35" d="M54.59,90.15s.91.43,1.32,0-.71-2.12-.52-2.18a.64.64,0,0,1,.32,0s0-.31-.24-.21-.26,1.06-.32,1.19-.36.26-.51.59-.16.23,0,.57"/><path class="cls-26" d="M54.59,90.15s.91.43,1.32,0-.71-2.12-.52-2.18a.64.64,0,0,1,.32,0s0-.31-.24-.21-.26,1.06-.32,1.19-.36.26-.51.59S54.48,89.81,54.59,90.15Z"/><path class="cls-36" d="M54.64,87.25s.53-.29.51.59a5.6,5.6,0,0,0,.11,1.32c0,.09-.38.34-.45.23s.15.07.07.11-.17.14-.24.11,0-2.36,0-2.36"/><path class="cls-30" d="M54.06,92.23s.6,4.17,0,4.79a3.76,3.76,0,0,0,1.61,0s-1.11-4.22-.62-4.56-1-.23-1-.23"/><path class="cls-37" d="M54.09,90.16s-.86.69-1.2.67,0,.86.7,1.17.72.53,1.15.45V90a.53.53,0,0,0-.65.16"/><path class="cls-37" d="M55.33,90.16s.86.69,1.2.67,0,.86-.71,1.17-.72.53-1.15.45V90a.54.54,0,0,1,.66.16"/><path d="M95.51,86.49A10.16,10.16,0,1,1,85.35,76.34,10.16,10.16,0,0,1,95.51,86.49"/><circle class="cls-24" cx="85.35" cy="86.49" r="10.15"/><path class="cls-18" d="M82.08,83s0-2.22,3.11-2.22,3,2.39,3,2.39-.6,3.71-1.54,3.75-2.17.3-2.47,0A6,6,0,0,1,82.08,83"/><path class="cls-38" d="M82.08,83s0-2.22,3.11-2.22,3,2.39,3,2.39-.6,3.71-1.54,3.75-2.17.3-2.47,0A6,6,0,0,1,82.08,83Z"/><path class="cls-18" d="M83.44,90.75s-3.35,1.56-4.5.47a2.26,2.26,0,0,1,.16-2.71s1.37,1,2.43.64c1.46-.54,2-2.05,2.78-1.86a1.89,1.89,0,0,1,.61,2.47,5,5,0,0,1-1.48,1"/><path class="cls-38" d="M83.44,90.75s-3.35,1.56-4.5.47a2.26,2.26,0,0,1,.16-2.71s1.37,1,2.43.64c1.46-.54,2-2.05,2.78-1.86a1.89,1.89,0,0,1,.61,2.47A5,5,0,0,1,83.44,90.75Z"/><path class="cls-18" d="M87.13,90.75s3.36,1.56,4.51.47a2.28,2.28,0,0,0-.16-2.71s-1.38,1-2.43.64c-1.46-.54-2-2.05-2.78-1.86-.61.16-1.13,1.48-.61,2.47a4.85,4.85,0,0,0,1.47,1"/><path class="cls-38" d="M87.13,90.75s3.36,1.56,4.51.47a2.28,2.28,0,0,0-.16-2.71s-1.38,1-2.43.64c-1.46-.54-2-2.05-2.78-1.86-.61.16-1.13,1.48-.61,2.47A4.85,4.85,0,0,0,87.13,90.75Z"/><path class="cls-18" d="M84.07,87.77a4.22,4.22,0,0,0-2,1.36c-.92,1.09-3,.05-3.5-.32s-2.68-2.21.28-4.39,5.24-1.25,5.18-.23.51,2.86.78,2.77,0,.7,0,.7Z"/><path class="cls-38" d="M84.07,87.77a4.22,4.22,0,0,0-2,1.36c-.92,1.09-3,.05-3.5-.32s-2.68-2.21.28-4.39,5.24-1.25,5.18-.23.51,2.86.78,2.77,0,.7,0,.7Z"/><path class="cls-18" d="M86.48,87.77a4.27,4.27,0,0,1,2,1.36c.91,1.09,3,.05,3.49-.32s2.68-2.21-.28-4.39-5.24-1.25-5.17-.23-.52,2.86-.79,2.77,0,.7,0,.7Z"/><path class="cls-38" d="M86.48,87.77a4.27,4.27,0,0,1,2,1.36c.91,1.09,3,.05,3.49-.32s2.68-2.21-.28-4.39-5.24-1.25-5.17-.23-.52,2.86-.79,2.77,0,.7,0,.7Z"/><path class="cls-18" d="M85.34,89.64s-.91.44-1.32,0,.71-2.12.52-2.17a.53.53,0,0,0-.32,0s0-.31.23-.21.27,1,.33,1.19.36.25.51.59.16.23,0,.56"/><path class="cls-39" d="M85.34,89.64s-.91.44-1.32,0,.71-2.12.52-2.17a.53.53,0,0,0-.32,0s0-.31.23-.21.27,1,.33,1.19.36.25.51.59S85.45,89.31,85.34,89.64Z"/><path class="cls-18" d="M85.29,86.75s-.54-.3-.52.58a5.25,5.25,0,0,1-.1,1.32c0,.1.38.35.45.24S85,89,85.05,89s.17.13.24.1,0-2.35,0-2.35"/><path class="cls-39" d="M85.29,86.75s-.54-.3-.52.58a5.25,5.25,0,0,1-.1,1.32c0,.1.38.35.45.24S85,89,85.05,89s.17.13.24.1S85.29,86.75,85.29,86.75Z"/><path class="cls-18" d="M85.2,89.64s.91.44,1.32,0-.71-2.12-.53-2.17a.52.52,0,0,1,.32,0s0-.31-.23-.21-.26,1-.32,1.19-.37.25-.51.59-.16.23,0,.56"/><path class="cls-39" d="M85.2,89.64s.91.44,1.32,0-.71-2.12-.53-2.17a.52.52,0,0,1,.32,0s0-.31-.23-.21-.26,1-.32,1.19-.37.25-.51.59S85.09,89.31,85.2,89.64Z"/><path class="cls-18" d="M85.25,86.75s.53-.3.51.58a5.51,5.51,0,0,0,.11,1.32c0,.1-.39.35-.45.24s.15.07.06.11-.17.13-.23.1,0-2.35,0-2.35"/><path class="cls-39" d="M85.25,86.75s.53-.3.51.58a5.51,5.51,0,0,0,.11,1.32c0,.1-.39.35-.45.24s.15.07.06.11-.17.13-.23.1S85.25,86.75,85.25,86.75Z"/><path class="cls-18" d="M84.64,91.51s.6,4.18,0,4.8a3.76,3.76,0,0,0,1.61,0s-1.11-4.23-.62-4.56-1-.24-1-.24"/><path class="cls-38" d="M84.64,91.51s.6,4.18,0,4.8a3.76,3.76,0,0,0,1.61,0s-1.11-4.23-.62-4.56S84.64,91.51,84.64,91.51Z"/><path class="cls-18" d="M84.7,89.65s-.87.69-1.2.68,0,.86.7,1.16.72.53,1.15.45V89.5a.52.52,0,0,0-.65.15"/><path class="cls-38" d="M84.7,89.65s-.87.69-1.2.68,0,.86.7,1.16.72.53,1.15.45V89.5A.52.52,0,0,0,84.7,89.65Z"/><path class="cls-18" d="M85.93,89.65s.87.69,1.2.68.05.86-.7,1.16-.72.53-1.15.45V89.5a.52.52,0,0,1,.65.15"/><path class="cls-38" d="M85.93,89.65s.87.69,1.2.68.05.86-.7,1.16-.72.53-1.15.45V89.5A.52.52,0,0,1,85.93,89.65Z"/><path class="cls-40" d="M85.35,18.29H74.29s2.61,6.36,11.06,6.05c8.46.31,11.07-6.05,11.07-6.05Z"/><path class="cls-41" d="M96.73,16.72c-8.56-6-11.38-5.53-11.38-5.53S82.53,10.67,74,16.72c0,0-.94.94.42,1.77H96.31c1.36-.83.42-1.77.42-1.77"/><path class="cls-42" d="M85.46,18.49H74.39A1.74,1.74,0,0,0,75.85,20c1.22.1,7-1.18,9.4-.77v0h.21v0c2.42-.41,8.17.87,9.39.77a1.74,1.74,0,0,0,1.46-1.47Z"/><path class="cls-43" d="M76.69,10.14s-3.34,3,.62,5.43c0,0,2.54.22,2.89-1.4s-1.74-6-3.51-4"/><path class="cls-44" d="M76.58,10.14a2.58,2.58,0,0,1,1.26-.83c1.38-.39,3.14.55,4.28,2.4,0,0,.75,1.11-.84,2.71a4.78,4.78,0,0,1-1.46.73,13.16,13.16,0,0,1-1.57.32c1.51-.64,1.78-1.15,1.78-1.15.28-.54,0-1.15-.21-1.88A6.49,6.49,0,0,0,78.25,10a1,1,0,0,0-.52-.31,1.2,1.2,0,0,0-1.15.41"/><path d="M75.64,13.69s3.34.32,3.24-1-2.61-1.46-3-1.15a2.06,2.06,0,0,0-.21,2.19"/><path class="cls-43" d="M94.55,10s3.34,3-.63,5.43c0,0-2.53.22-2.88-1.4s1.73-6,3.51-4"/><path class="cls-44" d="M94.65,10A2.68,2.68,0,0,0,93.4,9.2c-1.38-.39-3.14.55-4.28,2.41,0,0-.75,1.1.84,2.71a5,5,0,0,0,1.46.73,12,12,0,0,0,1.56.31c-1.5-.63-1.77-1.15-1.77-1.15-.28-.53-.06-1.15.21-1.87A6.35,6.35,0,0,1,93,9.94a1,1,0,0,1,.53-.32,1.18,1.18,0,0,1,1.14.42"/><path d="M95.59,13.59s-3.34.31-3.23-1.05,2.61-1.46,3-1.14a2,2,0,0,1,.21,2.19"/><path d="M84,16.15a.53.53,0,0,1-.46.57.59.59,0,1,1,.46-.57"/><path d="M87.13,16.15a.48.48,0,1,1-.47-.58.53.53,0,0,1,.47.58"/></g></g></svg>