<svg id="Layer_1" data-name="Layer 1" xmlns="http://www.w3.org/2000/svg" viewBox="0 0 93.2 95.4"><title>frog-logo</title><path d="M29.55,2.5H4.74A1.88,1.88,0,0,0,2.8,4.4V95.9a2,2,0,0,0,1.94,1.9H29.55a1.88,1.88,0,0,0,1.94-1.9V89a2,2,0,0,0-1.94-1.9H14.34v-74H29.55a1.88,1.88,0,0,0,1.94-1.9V4.3A1.86,1.86,0,0,0,29.55,2.5Z" transform="translate(-2.8 -2.4)"/><path d="M95.89,7.6h0V4.3A2,2,0,0,0,94,2.4H69.14A1.88,1.88,0,0,0,67.2,4.3v6.9a2,2,0,0,0,1.94,1.9H84.35V87H69.25a1.88,1.88,0,0,0-1.94,1.9v6.9a2,2,0,0,0,1.94,1.9H94.06A1.88,1.88,0,0,0,96,95.8V7.6Z" transform="translate(-2.8 -2.4)"/><path d="M50,23.47c-3.74,0-8.89,5.58-10.82,13.32a14.62,14.62,0,0,1-3.52,2.12c-1.28.48-1.59.26-1.67.21s-.46-.44-.57-1.76A16.07,16.07,0,0,1,34.23,32a1.6,1.6,0,0,1-2.81-.79,1.6,1.6,0,0,1-2.82-.78,20.86,20.86,0,0,0-1,7.43,7.89,7.89,0,0,0,3.07,6.12,7.65,7.65,0,0,0,7,.47q.36-.13.72-.3a61.33,61.33,0,0,0,.43,8.32,21.41,21.41,0,0,0-4.78-.72c-2.36-.05-5.36.57-7,3.2a6,6,0,0,0-.63,4.46,7.28,7.28,0,0,0,1.91,3.14,28.11,28.11,0,0,0,5,3.89,28.6,28.6,0,0,1,4,3c-.14.08-.13.19-1.17.29a45.88,45.88,0,0,1-8.06-.46h0A1.75,1.75,0,0,1,28,72.66a1.76,1.76,0,0,1,.83,1.87,1.74,1.74,0,0,1-2,1.37,48,48,0,0,0,10,.56c2.59-.24,5.76-1.25,7.19-4.29a6.2,6.2,0,0,0,.25-4.43,8,8,0,0,0-2-3.08,29.9,29.9,0,0,0-5.12-3.95c-1.23-.82-2-1.46-2.8-2.09a20.56,20.56,0,0,1,4.5.91A39.47,39.47,0,0,0,50,61.48a39.47,39.47,0,0,0,11.09-1.95,20.56,20.56,0,0,1,4.5-.91c-.79.63-1.57,1.27-2.8,2.09a29.51,29.51,0,0,0-5.12,3.95,8,8,0,0,0-2,3.08A6.2,6.2,0,0,0,56,72.17c1.43,3,4.6,4,7.19,4.29a48,48,0,0,0,10-.56h0A1.75,1.75,0,0,1,72,72.66a1.75,1.75,0,0,1-.13-3.46,44.93,44.93,0,0,1-8.06.46c-1-.09-1-.2-1.17-.29a29.42,29.42,0,0,1,4-3,28,28,0,0,0,5-3.88,7.41,7.41,0,0,0,1.91-3.14,6,6,0,0,0-.63-4.46c-1.61-2.64-4.61-3.26-7-3.21a20.86,20.86,0,0,0-4.78.73,63.18,63.18,0,0,0,.43-8.32l.72.29a7.62,7.62,0,0,0,7-.46,7.92,7.92,0,0,0,3.07-6.13,21.06,21.06,0,0,0-1-7.43,1.63,1.63,0,0,1-1.16,1.31,1.65,1.65,0,0,1-1.67-.52,1.6,1.6,0,0,1-1.15,1.3,1.63,1.63,0,0,1-1.66-.52,16.4,16.4,0,0,1,.81,5.41c-.11,1.32-.48,1.7-.57,1.76s-.39.27-1.67-.2a14.73,14.73,0,0,1-3.52-2.13C58.89,29,53.74,23.46,50,23.46Z" transform="translate(-2.8 -2.4)"/></svg>