<svg id="Layer_1" data-name="Layer 1" xmlns="http://www.w3.org/2000/svg" xmlns:xlink="http://www.w3.org/1999/xlink" viewBox="0 0 628.16 697.67"><defs><style>.cls-1,.cls-22,.cls-24,.cls-26,.cls-38,.cls-39,.cls-4{fill:none;}.cls-2{clip-path:url(#clip-path);}.cls-3{fill:#333104;}.cls-22,.cls-38,.cls-39,.cls-4{stroke:#000;}.cls-22,.cls-24,.cls-26,.cls-38,.cls-39,.cls-4{stroke-miterlimit:10;}.cls-4{stroke-width:2.67px;}.cls-5{fill:#dfed7a;}.cls-6{fill:#8fef78;}.cls-7{fill:#79bff2;}.cls-8{fill:#1873d6;}.cls-9{fill:#a5d5f2;}.cls-10{fill:#52a1e8;}.cls-11{fill:#063056;}.cls-12{fill:#ed4850;}.cls-13{fill:#7f0a1e;}.cls-14{fill:#f79caa;}.cls-15{fill:#7c0a2b;}.cls-16{fill:#350606;}.cls-17{fill:#088708;}.cls-18{fill:#fff;}.cls-19{fill:#7c790e;}.cls-20{fill:#7f5005;}.cls-21{fill:#939393;}.cls-22{stroke-width:5.35px;}.cls-23{fill:#8fea9c;}.cls-24,.cls-26{stroke:#fff;}.cls-24,.cls-38{stroke-width:1.34px;}.cls-25{fill:#3d0335;}.cls-26,.cls-39{stroke-width:0.53px;}.cls-27{fill:#b50d95;}.cls-28{fill:#ad0cc4;}.cls-29{fill:#eaace4;}.cls-30{fill:#095b13;}.cls-31{fill:#e530d4;}.cls-32{fill:#91dbe8;}.cls-33{fill:#0a208e;}.cls-34{fill:#0f80b2;}.cls-35{fill:#7583cc;}.cls-36{fill:#a0efef;}.cls-37{fill:#33dae2;}.cls-40{fill:#aaa;}.cls-41{fill:#3a3a3a;}.cls-42{fill:#bcbcbc;}.cls-43{fill:#6b6b6b;}.cls-44{fill:#848484;}</style><clipPath id="clip-path"><rect class="cls-1" y="43.08" width="628.16" height="633.51"/></clipPath></defs><title>icon-project-pic</title><g class="cls-2"><g class="cls-2"><path class="cls-3" d="M97,468.41s-4.27-45,24.18-43,23.35,34.07,22.84,39.41-20.32-21.13-47,3.55"/><path d="M579.39,275.63a77.52,77.52,0,1,1-77.51-77.51,77.52,77.52,0,0,1,77.51,77.51"/><circle class="cls-4" cx="501.88" cy="275.63" r="77.52"/><path class="cls-5" d="M382.52,275.63A77.52,77.52,0,1,1,305,198.12a77.52,77.52,0,0,1,77.52,77.51"/><path class="cls-6" d="M196.91,275.63a77.52,77.52,0,1,1-77.52-77.51,77.52,77.52,0,0,1,77.52,77.51"/><path class="cls-7" d="M43.83,132.17s16.78,41,71.16,38.94V132.17Z"/><path class="cls-7" d="M186.16,132.17s-16.79,41-71.17,38.94V132.17Z"/><path class="cls-8" d="M115,86.51S96.86,83.16,41.81,122.1c0,0-6,6,2.68,11.41H115Z"/><path class="cls-8" d="M115,86.51s18.13-3.35,73.18,35.59c0,0,6.05,6-2.68,11.41H115Z"/><path class="cls-9" d="M44.5,133.51s1.34,8.73,9.39,9.4,47-8.06,61.77-4.7v-4.7H44.5"/><path class="cls-9" d="M185.49,133.51s-1.35,8.73-9.4,9.4-47-8.06-61.77-4.7v-4.7h71.17"/><path class="cls-8" d="M59.27,79.8s-21.49,19.47,4,34.91c0,0,16.28,1.44,18.54-9S70.68,67,59.27,79.8"/><path class="cls-10" d="M58.59,79.8a16.82,16.82,0,0,1,8.06-5.38c8.89-2.53,20.2,3.52,27.53,15.45,0,0,4.86,7.13-5.37,17.46a32.71,32.71,0,0,1-9.4,4.7,84.6,84.6,0,0,1-10.08,2c9.68-4.07,11.42-7.39,11.42-7.39,1.82-3.44.36-7.41-1.34-12.08A41.94,41.94,0,0,0,69.33,79.13a6.72,6.72,0,0,0-3.35-2,7.69,7.69,0,0,0-7.39,2.68"/><path d="M52.55,102.63s21.49,2,20.81-6.72-16.78-9.39-19.47-7.38-4,10.07-1.34,14.1"/><path class="cls-8" d="M174.16,79.13s21.48,19.47-4,34.91c0,0-16.28,1.43-18.55-9s11.16-38.66,22.58-25.9"/><path class="cls-10" d="M174.83,79.13a16.7,16.7,0,0,0-8.06-5.38c-8.89-2.53-20.2,3.52-27.53,15.45,0,0-4.86,7.13,5.38,17.46a32.46,32.46,0,0,0,9.39,4.7,85,85,0,0,0,10.08,2c-9.67-4.07-11.42-7.39-11.42-7.39-1.81-3.44-.36-7.41,1.34-12.08a42,42,0,0,1,10.08-15.44,6.72,6.72,0,0,1,3.35-2,7.66,7.66,0,0,1,7.39,2.68"/><path d="M180.87,102s-21.49,2-20.81-6.72,16.78-9.4,19.47-7.38,4,10.07,1.34,14.1"/><path class="cls-11" d="M106.26,118.4c0,2-1.35,3.7-3,3.7s-3-1.66-3-3.7,1.35-3.69,3-3.69,3,1.66,3,3.69"/><path class="cls-11" d="M126.4,118.4c0,2-1.35,3.7-3,3.7s-3-1.66-3-3.7,1.36-3.69,3-3.69,3,1.66,3,3.69"/><path class="cls-12" d="M233.84,130.36s16.78,41,71.16,38.94V130.36Z"/><path class="cls-12" d="M376.17,130.36s-16.79,41-71.17,38.94V130.36Z"/><path class="cls-13" d="M305,84.71s-18.13-3.36-73.18,35.58c0,0-6,6,2.69,11.42H305Z"/><path class="cls-13" d="M305,84.71s18.13-3.36,73.18,35.58c0,0,6,6-2.68,11.42H305Z"/><path class="cls-14" d="M234.51,131.71s1.34,8.72,9.4,9.4,47-8.06,61.76-4.7v-4.7H234.51"/><path class="cls-14" d="M375.5,131.71s-1.34,8.72-9.4,9.4-47-8.06-61.77-4.7v-4.7H375.5"/><path class="cls-15" d="M249.28,78s-21.49,19.47,4,34.91c0,0,16.29,1.43,18.55-9S260.69,65.24,249.28,78"/><path class="cls-12" d="M248.61,78a16.61,16.61,0,0,1,8.05-5.38c8.89-2.53,20.21,3.52,27.53,15.45,0,0,4.86,7.12-5.37,17.45a32.44,32.44,0,0,1-9.4,4.7,84.32,84.32,0,0,1-10.07,2c9.66-4.08,11.41-7.39,11.41-7.39,1.82-3.44.36-7.41-1.34-12.08a41.85,41.85,0,0,0-10.07-15.44,6.81,6.81,0,0,0-3.36-2A7.65,7.65,0,0,0,248.61,78"/><path d="M242.56,100.82s21.49,2,20.82-6.71-16.79-9.4-19.47-7.38-4,10.07-1.35,14.09"/><path class="cls-15" d="M364.17,77.33s21.48,19.47-4,34.91c0,0-16.28,1.43-18.55-9s11.16-38.65,22.58-25.89"/><path class="cls-12" d="M364.84,77.33A16.62,16.62,0,0,0,356.78,72c-8.89-2.53-20.2,3.52-27.52,15.45,0,0-4.87,7.12,5.37,17.45a32.6,32.6,0,0,0,9.39,4.7,86.9,86.9,0,0,0,10.08,2c-9.67-4.08-11.42-7.39-11.42-7.39-1.81-3.44-.36-7.41,1.34-12.08A41.78,41.78,0,0,1,354.1,76.66a6.72,6.72,0,0,1,3.35-2,7.67,7.67,0,0,1,7.39,2.69"/><path d="M370.88,100.15s-21.48,2-20.82-6.71,16.79-9.4,19.47-7.39,4,10.07,1.35,14.1"/><path class="cls-16" d="M296.27,116.6c0,2-1.35,3.69-3,3.69s-3-1.65-3-3.69,1.36-3.69,3-3.69,3,1.65,3,3.69"/><path class="cls-16" d="M316.41,116.6c0,2-1.35,3.69-3,3.69s-3-1.65-3-3.69,1.36-3.69,3-3.69,3,1.65,3,3.69"/><path class="cls-17" d="M115.58,323.55s-6.78,4.52-9,6.78c0,0-11.31,6.78-24.88-18.09,0,0,2.26,4.52,6.79,2.26,0,0,11.3-2.26,11.3-4.52s-22.61,2.26-22.61,2.26S65.83,310,65.83,296.41c0,0,15.83,4.52,31.66,2.26,0,0,6.79,0-18.09-6.78s-11.3-22.61-11.3-22.61S95.23,289.63,102,287.36s-11.3-4.52-15.83-9c0,0-15.82-9-18.08-15.83,0,0,4.52-9,4.52-11.3S93,264.75,97.49,271.53s6.79,2.27,6.79,2.27,2.26-2.27-11.31-13.57c0,0-15.83-15.83-9-22.61s11.31-11.31,11.31-13.57,0,33.92,13.57,36.18c0,0,9,2.26-9-22.61,0,0-2.26-13.57,0-15.83a32.47,32.47,0,0,1,6.79-4.52s0,20.35,4.52,20.35-2.26-18.09,0-20.35a8,8,0,0,0,6.78-4.53s18.09,2.27,20.35,6.79c0,0-2.26,15.83-6.78,18.09s-11.31,15.83-6.78,15.83,18.08-20.35,18.08-24.88c0,0,2.27-9,0-9s9,2.26,11.31,11.31c0,0-11.31,24.87-27.13,36.18,0,0,0,6.78,6.78,2.26s27.13-29.4,24.87-36.18,11.31,11.3,9.05,15.83S156.28,267,151.76,269.28s-18.09,11.3-15.83,13.56,13.57-4.52,13.57-4.52,18.09-13.57,18.09-24.87,6.78,18.08,6.78,18.08-24.87,22.62-33.92,20.36c0,0-4.52,4.52,18.09,2.26,0,0,6.79-2.26,9.05-9s4.52,11.31,2.26,13.57c0,0-9,6.79-11.31,4.52s-18.09-2.26-18.09,0,4.53,4.53,4.53,4.53,9,4.52,24.87-4.53c0,0,2.26,11.31-9,18.09,0,0-27.13-9-22.61-4.52,0,0,0,11.31,20.35,6.79,0,0-4.52,9-18.09,11.3,0,0-18.08-4.52-20.35-11.3s0-9.05,0-11.31-2.26,4.52-2.26,9v15.83h-4.52Z"/><path class="cls-18" d="M498.07,323.55s-6.79,4.52-9.05,6.78c0,0-11.31,6.78-24.87-18.09,0,0,2.26,4.52,6.78,2.26,0,0,11.31-2.26,11.31-4.52s-22.61,2.26-22.61,2.26-11.31-2.26-11.31-15.83c0,0,15.83,4.52,31.66,2.26,0,0,6.78,0-18.09-6.78s-11.31-22.61-11.31-22.61,27.13,20.35,33.92,18.08-11.31-4.52-15.83-9c0,0-15.83-9-18.09-15.83,0,0,4.52-9,4.52-11.3s20.36,13.56,24.88,20.34,6.78,2.27,6.78,2.27,2.26-2.27-11.3-13.57c0,0-15.83-15.83-9-22.61s11.3-11.31,11.3-13.57,0,33.92,13.57,36.18c0,0,9.05,2.26-9-22.61,0,0-2.26-13.57,0-15.83a32.51,32.51,0,0,1,6.78-4.52s0,20.35,4.52,20.35-2.26-18.09,0-20.35a8,8,0,0,0,6.79-4.53s18.09,2.27,20.35,6.79c0,0-2.26,15.83-6.79,18.09s-11.3,15.83-6.78,15.83,18.09-20.35,18.09-24.88c0,0,2.26-9,0-9s9,2.26,11.31,11.31c0,0-11.31,24.87-27.14,36.18,0,0,0,6.78,6.79,2.26s27.13-29.4,24.87-36.18,11.3,11.3,9.05,15.83S538.77,267,534.25,269.28s-18.09,11.3-15.83,13.56S532,278.32,532,278.32s18.1-13.57,18.1-24.87,6.78,18.08,6.78,18.08S532,294.15,522.94,291.89c0,0-4.52,4.52,18.09,2.26,0,0,6.78-2.26,9.05-9s4.52,11.31,2.25,13.57c0,0-9,6.79-11.3,4.52s-18.09-2.26-18.09,0,4.52,4.53,4.52,4.53,9,4.52,24.87-4.53c0,0,2.27,11.31-9,18.09,0,0-27.13-9-22.61-4.52,0,0,0,11.31,20.35,6.79,0,0-4.52,9-18.09,11.3,0,0-18.09-4.52-20.35-11.3s0-9.05,0-11.31-2.26,4.52-2.26,9v15.83H495.8Z"/><path class="cls-4" d="M498.07,323.55s-6.79,4.52-9.05,6.78c0,0-11.31,6.78-24.87-18.09,0,0,2.26,4.52,6.78,2.26,0,0,11.31-2.26,11.31-4.52s-22.61,2.26-22.61,2.26-11.31-2.26-11.31-15.83c0,0,15.83,4.52,31.66,2.26,0,0,6.78,0-18.09-6.78s-11.31-22.61-11.31-22.61,27.13,20.35,33.92,18.08-11.31-4.52-15.83-9c0,0-15.83-9-18.09-15.83,0,0,4.52-9,4.52-11.3s20.36,13.56,24.88,20.34,6.78,2.27,6.78,2.27,2.26-2.27-11.3-13.57c0,0-15.83-15.83-9-22.61s11.3-11.31,11.3-13.57,0,33.92,13.57,36.18c0,0,9.05,2.26-9-22.61,0,0-2.26-13.57,0-15.83a32.51,32.51,0,0,1,6.78-4.52s0,20.35,4.52,20.35-2.26-18.09,0-20.35a8,8,0,0,0,6.79-4.53s18.09,2.27,20.35,6.79c0,0-2.26,15.83-6.79,18.09s-11.3,15.83-6.78,15.83,18.09-20.35,18.09-24.88c0,0,2.26-9,0-9s9,2.26,11.31,11.31c0,0-11.31,24.87-27.14,36.18,0,0,0,6.78,6.79,2.26s27.13-29.4,24.87-36.18,11.3,11.3,9.05,15.83S538.77,267,534.25,269.28s-18.09,11.3-15.83,13.56S532,278.32,532,278.32s18.1-13.57,18.1-24.87,6.78,18.08,6.78,18.08S532,294.15,522.94,291.89c0,0-4.52,4.52,18.09,2.26,0,0,6.78-2.26,9.05-9s4.52,11.31,2.25,13.57c0,0-9,6.79-11.3,4.52s-18.09-2.26-18.09,0,4.52,4.53,4.52,4.53,9,4.52,24.87-4.53c0,0,2.27,11.31-9,18.09,0,0-27.13-9-22.61-4.52,0,0,0,11.31,20.35,6.79,0,0-4.52,9-18.09,11.3,0,0-18.09-4.52-20.35-11.3s0-9.05,0-11.31-2.26,4.52-2.26,9v15.83H495.8Z"/><path class="cls-19" d="M301.19,323.55s-6.78,4.52-9,6.78c0,0-11.31,6.78-24.88-18.09,0,0,2.27,4.52,6.79,2.26,0,0,11.31-2.26,11.31-4.52s-22.61,2.26-22.61,2.26-11.31-2.26-11.31-15.83c0,0,15.82,4.52,31.65,2.26,0,0,6.79,0-18.09-6.78s-11.3-22.61-11.3-22.61,27.13,20.35,33.92,18.08-11.31-4.52-15.83-9c0,0-15.83-9-18.09-15.83,0,0,4.52-9,4.52-11.3s20.36,13.56,24.87,20.34,6.79,2.27,6.79,2.27,2.26-2.27-11.3-13.57c0,0-15.83-15.83-9-22.61s11.3-11.31,11.3-13.57,0,33.92,13.57,36.18c0,0,9,2.26-9-22.61,0,0-2.27-13.57,0-15.83a32.51,32.51,0,0,1,6.78-4.52s0,20.35,4.52,20.35-2.26-18.09,0-20.35a8,8,0,0,0,6.79-4.53s18.09,2.27,20.34,6.79c0,0-2.25,15.83-6.78,18.09s-11.3,15.83-6.78,15.83,18.09-20.35,18.09-24.88c0,0,2.26-9,0-9s9.05,2.26,11.3,11.31c0,0-11.3,24.87-27.13,36.18,0,0,0,6.78,6.79,2.26s27.13-29.4,24.87-36.18,11.3,11.3,9,15.83S341.89,267,337.38,269.28s-18.09,11.3-15.83,13.56,13.57-4.52,13.57-4.52,18.09-13.57,18.09-24.87S360,271.53,360,271.53s-24.87,22.62-33.93,20.36c0,0-4.51,4.52,18.1,2.26,0,0,6.79-2.26,9-9s4.51,11.31,2.25,13.57c0,0-9,6.79-11.3,4.52s-18.1-2.26-18.1,0,4.53,4.53,4.53,4.53,9,4.52,24.87-4.53c0,0,2.26,11.31-9,18.09,0,0-27.13-9-22.62-4.52,0,0,0,11.31,20.36,6.79,0,0-4.53,9-18.1,11.3,0,0-18.08-4.52-20.34-11.3s0-9.05,0-11.31-2.26,4.52-2.26,9v15.83h-4.53Z"/><path class="cls-20" d="M53.94,462.43s12.19-52.84,28.45-56.91a101.14,101.14,0,0,0,28.46-12.19s44.71-12.19,65,32.52c0,0,12.19,24.39,8.13,32.52,0,0-8.47,15.75-41.33,17.44,0,0,4.41-46.06-15.41-46.41S102,434.48,100,477c0,0-37.6-.68-46.07-14.57"/><path class="cls-3" d="M283.41,468.41s-7.9-44.93,20.56-42.89,25.4,33.53,24.89,38.86-18.75-20.65-45.45,4"/><path class="cls-21" d="M239.55,462.43s12.2-52.84,28.45-56.91a101,101,0,0,0,28.46-12.19s44.71-12.19,65,32.52c0,0,12.19,24.39,8.14,32.52,0,0-8.47,15.75-41.33,17.44,0,0,4.4-46.06-15.42-46.41s-25.23,5.08-27.26,47.6c0,0-37.6-.68-46.07-14.57"/><path d="M479.48,468.41s-7.9-44.93,20.56-42.89,25.4,33.53,24.89,38.86-18.76-20.65-45.45,4"/><path class="cls-22" d="M479.48,468.41s-7.9-44.93,20.56-42.89,25.4,33.53,24.89,38.86S506.17,443.73,479.48,468.41Z"/><path class="cls-18" d="M436.42,462.43s12.2-52.84,28.45-56.91a101.14,101.14,0,0,0,28.46-12.19s44.71-12.19,65,32.52c0,0,12.19,24.39,8.12,32.52,0,0-8.47,15.75-41.32,17.44,0,0,4.4-46.06-15.41-46.41s-25.24,5.08-27.27,47.6c0,0-37.6-.68-46.07-14.57"/><path class="cls-22" d="M436.42,462.43s12.2-52.84,28.45-56.91a101.14,101.14,0,0,0,28.46-12.19s44.71-12.19,65,32.52c0,0,12.19,24.39,8.12,32.52,0,0-8.47,15.75-41.32,17.44,0,0,4.4-46.06-15.41-46.41s-25.24,5.08-27.27,47.6C482.49,477,444.89,476.32,436.42,462.43Z"/><path class="cls-23" d="M184.7,575.11a65.32,65.32,0,1,1-65.31-65.31,65.31,65.31,0,0,1,65.31,65.31"/><circle class="cls-24" cx="119.39" cy="575.11" r="65.31"/><path class="cls-25" d="M98.36,552.91s-.27-14.26,20-14.26S137.56,554,137.56,554s-3.83,23.85-9.86,24.13-14,1.91-15.9,0-11.79-9.6-13.44-25.22"/><path class="cls-26" d="M98.36,552.91s-.27-14.26,20-14.26S137.56,554,137.56,554s-3.83,23.85-9.86,24.13-14,1.91-15.9,0S100,568.53,98.36,552.91Z"/><path class="cls-25" d="M107.12,602.47s-21.59,10.08-29,3.09c0,0-6-7.81,1-17.47,0,0,8.84,6.57,15.62,4.1,9.42-3.42,13-13.17,17.89-11.92,3.9,1,7.29,9.47,3.91,15.84a30.27,30.27,0,0,1-9.46,6.36"/><path class="cls-26" d="M107.12,602.47s-21.59,10.08-29,3.09c0,0-6-7.81,1-17.47,0,0,8.84,6.57,15.62,4.1,9.42-3.42,13-13.17,17.89-11.92,3.9,1,7.29,9.47,3.91,15.84A30.27,30.27,0,0,1,107.12,602.47Z"/><path class="cls-25" d="M130.83,602.47s21.59,10.08,29,3.09c0,0,6-7.81-1-17.47,0,0-8.83,6.57-15.62,4.1-9.42-3.42-13-13.17-17.89-11.92-3.9,1-7.29,9.47-3.91,15.84a30.39,30.39,0,0,0,9.46,6.36"/><path class="cls-26" d="M130.83,602.47s21.59,10.08,29,3.09c0,0,6-7.81-1-17.47,0,0-8.83,6.57-15.62,4.1-9.42-3.42-13-13.17-17.89-11.92-3.9,1-7.29,9.47-3.91,15.84A30.39,30.39,0,0,0,130.83,602.47Z"/><path class="cls-27" d="M111.15,583.33A27.37,27.37,0,0,0,98,592.08c-5.9,7-19.6.29-22.48-2s-17.27-14.26,1.78-28.23,33.72-8.09,33.3-1.52,3.3,18.43,5.08,17.85,0,4.49,0,4.49Z"/><path class="cls-24" d="M111.15,583.33A27.37,27.37,0,0,0,98,592.08c-5.9,7-19.6.29-22.48-2s-17.27-14.26,1.78-28.23,33.72-8.09,33.3-1.52,3.3,18.43,5.08,17.85,0,4.49,0,4.49Z"/><path class="cls-27" d="M126.65,583.33a27.37,27.37,0,0,1,13.15,8.75c5.9,7,19.61.29,22.49-2s17.26-14.26-1.79-28.23-33.72-8.09-33.3-1.52-3.3,18.43-5.08,17.85,0,4.49,0,4.49Z"/><path class="cls-24" d="M126.65,583.33a27.37,27.37,0,0,1,13.15,8.75c5.9,7,19.61.29,22.49-2s17.26-14.26-1.79-28.23-33.72-8.09-33.3-1.52-3.3,18.43-5.08,17.85,0,4.49,0,4.49Z"/><path class="cls-28" d="M119.31,595.39s-5.87,2.78-8.5.31,4.57-13.63,3.38-14a3.67,3.67,0,0,0-2.07-.08s-.21-2,1.5-1.34,1.68,6.8,2.07,7.66,2.36,1.63,3.28,3.79,1,1.49.34,3.65"/><path class="cls-26" d="M119.31,595.39s-5.87,2.78-8.5.31,4.57-13.63,3.38-14a3.67,3.67,0,0,0-2.07-.08s-.21-2,1.5-1.34,1.68,6.8,2.07,7.66,2.36,1.63,3.28,3.79S120,593.23,119.31,595.39Z"/><path class="cls-29" d="M119,576.76s-3.42-1.9-3.28,3.74A36,36,0,0,1,115,589c0,.59,2.47,2.2,2.88,1.51s-1,.44-.41.69,1.08.88,1.5.68,0-15.14,0-15.14"/><path class="cls-28" d="M118.39,595.39s5.87,2.78,8.5.31-4.58-13.63-3.38-14a3.64,3.64,0,0,1,2.06-.08s.21-2-1.5-1.34-1.68,6.8-2.07,7.66-2.35,1.63-3.28,3.79-1,1.49-.33,3.65"/><path class="cls-26" d="M118.39,595.39s5.87,2.78,8.5.31-4.58-13.63-3.38-14a3.64,3.64,0,0,1,2.06-.08s.21-2-1.5-1.34-1.68,6.8-2.07,7.66-2.35,1.63-3.28,3.79S117.69,593.23,118.39,595.39Z"/><path class="cls-29" d="M118.73,576.76s3.42-1.9,3.29,3.74a36.4,36.4,0,0,0,.68,8.52c0,.59-2.46,2.2-2.88,1.51s1,.44.42.69-1.09.88-1.51.68,0-15.14,0-15.14"/><path class="cls-30" d="M115,608.75s3.85,26.85,0,30.85c0,0,6,1.34,10.34,0,0,0-7.15-27.19-4-29.34s-6.34-1.51-6.34-1.51"/><path class="cls-31" d="M115.17,595.46s-5.55,4.42-7.71,4.32-.31,5.55,4.53,7.5,4.62,3.4,7.4,2.88V594.43a3.43,3.43,0,0,0-4.22,1"/><path class="cls-31" d="M123.14,595.46s5.55,4.42,7.71,4.32.31,5.55-4.53,7.5-4.62,3.4-7.4,2.88V594.43a3.43,3.43,0,0,1,4.22,1"/><path class="cls-32" d="M370.31,574.23A65.31,65.31,0,1,1,305,508.92a65.31,65.31,0,0,1,65.31,65.31"/><circle class="cls-24" cx="305" cy="574.23" r="65.31"/><path class="cls-33" d="M284,552s-.28-14.25,20-14.25,19.19,15.34,19.19,15.34-3.84,23.86-9.87,24.13-14,1.92-15.9,0S285.62,567.65,284,552"/><path class="cls-26" d="M284,552s-.28-14.25,20-14.25,19.19,15.34,19.19,15.34-3.84,23.86-9.87,24.13-14,1.92-15.9,0S285.62,567.65,284,552Z"/><path class="cls-33" d="M292.73,601.59s-21.58,10.08-29,3.08c0,0-6-7.81,1-17.47,0,0,8.83,6.57,15.62,4.11,9.42-3.42,13-13.17,17.89-11.92,3.9,1,7.29,9.46,3.91,15.83a30.3,30.3,0,0,1-9.47,6.37"/><path class="cls-26" d="M292.73,601.59s-21.58,10.08-29,3.08c0,0-6-7.81,1-17.47,0,0,8.83,6.57,15.62,4.11,9.42-3.42,13-13.17,17.89-11.92,3.9,1,7.29,9.46,3.91,15.83A30.3,30.3,0,0,1,292.73,601.59Z"/><path class="cls-33" d="M316.45,601.59s21.59,10.08,29,3.08c0,0,6-7.81-1-17.47,0,0-8.84,6.57-15.62,4.11-9.42-3.42-13-13.17-17.89-11.92-3.9,1-7.29,9.46-3.92,15.83a30.3,30.3,0,0,0,9.47,6.37"/><path class="cls-26" d="M316.45,601.59s21.59,10.08,29,3.08c0,0,6-7.81-1-17.47,0,0-8.84,6.57-15.62,4.11-9.42-3.42-13-13.17-17.89-11.92-3.9,1-7.29,9.46-3.92,15.83A30.3,30.3,0,0,0,316.45,601.59Z"/><path class="cls-34" d="M296.77,582.45a27.42,27.42,0,0,0-13.16,8.75c-5.89,7-19.6.29-22.48-2s-17.27-14.25,1.78-28.23,33.72-8.09,33.31-1.52,3.29,18.43,5.07,17.86,0,4.49,0,4.49Z"/><path class="cls-24" d="M296.77,582.45a27.42,27.42,0,0,0-13.16,8.75c-5.89,7-19.6.29-22.48-2s-17.27-14.25,1.78-28.23,33.72-8.09,33.31-1.52,3.29,18.43,5.07,17.86,0,4.49,0,4.49Z"/><path class="cls-34" d="M312.26,582.45a27.42,27.42,0,0,1,13.16,8.75c5.89,7,19.6.29,22.48-2s17.27-14.25-1.79-28.23-33.71-8.09-33.3-1.52-3.29,18.43-5.07,17.86,0,4.49,0,4.49Z"/><path class="cls-24" d="M312.26,582.45a27.42,27.42,0,0,1,13.16,8.75c5.89,7,19.6.29,22.48-2s17.27-14.25-1.79-28.23-33.71-8.09-33.3-1.52-3.29,18.43-5.07,17.86,0,4.49,0,4.49Z"/><path class="cls-35" d="M304.92,594.51s-5.87,2.78-8.5.3,4.57-13.63,3.38-14a3.74,3.74,0,0,0-2.06-.08s-.22-2,1.49-1.34,1.68,6.8,2.07,7.67,2.36,1.62,3.29,3.79,1,1.49.33,3.65"/><path class="cls-26" d="M304.92,594.51s-5.87,2.78-8.5.3,4.57-13.63,3.38-14a3.74,3.74,0,0,0-2.06-.08s-.22-2,1.49-1.34,1.68,6.8,2.07,7.67,2.36,1.62,3.29,3.79S305.62,592.35,304.92,594.51Z"/><path class="cls-36" d="M304.58,575.88s-3.43-1.91-3.29,3.73a36.07,36.07,0,0,1-.69,8.53c0,.59,2.47,2.19,2.88,1.5s-1,.44-.41.69,1.08.88,1.51.69,0-15.14,0-15.14"/><path class="cls-35" d="M304,594.51s5.87,2.78,8.5.3-4.57-13.63-3.38-14a3.74,3.74,0,0,1,2.06-.08s.21-2-1.49-1.34-1.68,6.8-2.07,7.67-2.36,1.62-3.28,3.79-1,1.49-.34,3.65"/><path class="cls-26" d="M304,594.51s5.87,2.78,8.5.3-4.57-13.63-3.38-14a3.74,3.74,0,0,1,2.06-.08s.21-2-1.49-1.34-1.68,6.8-2.07,7.67-2.36,1.62-3.28,3.79S303.3,592.35,304,594.51Z"/><path class="cls-36" d="M304.34,575.88s3.43-1.91,3.29,3.73a36.07,36.07,0,0,0,.69,8.53c0,.59-2.47,2.19-2.88,1.5s.94.44.41.69-1.08.88-1.51.69,0-15.14,0-15.14"/><path class="cls-30" d="M300.61,607.86s3.84,26.85,0,30.86c0,0,6,1.34,10.34,0,0,0-7.15-27.19-4-29.34s-6.34-1.52-6.34-1.52"/><path class="cls-37" d="M300.79,594.57s-5.56,4.42-7.71,4.32-.31,5.55,4.52,7.5,4.63,3.4,7.4,2.89V593.55a3.42,3.42,0,0,0-4.21,1"/><path class="cls-37" d="M308.75,594.57s5.55,4.42,7.71,4.32.31,5.55-4.52,7.5-4.63,3.4-7.4,2.89V593.55a3.42,3.42,0,0,1,4.21,1"/><path d="M567.19,571a65.32,65.32,0,1,1-65.32-65.31A65.32,65.32,0,0,1,567.19,571"/><circle class="cls-24" cx="501.87" cy="570.97" r="65.31"/><path class="cls-18" d="M480.85,548.77s-.28-14.26,20-14.26,19.19,15.35,19.19,15.35-3.84,23.85-9.87,24.13-14,1.91-15.9,0-11.79-9.6-13.43-25.22"/><path class="cls-38" d="M480.85,548.77s-.28-14.26,20-14.26,19.19,15.35,19.19,15.35-3.84,23.85-9.87,24.13-14,1.91-15.9,0S482.49,564.39,480.85,548.77Z"/><path class="cls-18" d="M489.61,598.33s-21.59,10.08-29,3.09c0,0-6-7.81,1-17.47,0,0,8.84,6.57,15.62,4.1,9.42-3.42,13-13.17,17.89-11.92,3.9,1,7.28,9.47,3.91,15.84a30.27,30.27,0,0,1-9.46,6.36"/><path class="cls-38" d="M489.61,598.33s-21.59,10.08-29,3.09c0,0-6-7.81,1-17.47,0,0,8.84,6.57,15.62,4.1,9.42-3.42,13-13.17,17.89-11.92,3.9,1,7.28,9.47,3.91,15.84A30.27,30.27,0,0,1,489.61,598.33Z"/><path class="cls-18" d="M513.32,598.33s21.59,10.08,29,3.09c0,0,6-7.81-1-17.47,0,0-8.84,6.57-15.62,4.1-9.42-3.42-13-13.17-17.89-11.92-3.9,1-7.29,9.47-3.92,15.84a30.37,30.37,0,0,0,9.47,6.36"/><path class="cls-38" d="M513.32,598.33s21.59,10.08,29,3.09c0,0,6-7.81-1-17.47,0,0-8.84,6.57-15.62,4.1-9.42-3.42-13-13.17-17.89-11.92-3.9,1-7.29,9.47-3.92,15.84A30.37,30.37,0,0,0,513.32,598.33Z"/><path class="cls-18" d="M493.64,579.19a27.51,27.51,0,0,0-13.16,8.75c-5.89,7-19.6.29-22.47-2s-17.27-14.26,1.78-28.23,33.72-8.09,33.3-1.52,3.29,18.43,5.08,17.85,0,4.49,0,4.49Z"/><path class="cls-38" d="M493.64,579.19a27.51,27.51,0,0,0-13.16,8.75c-5.89,7-19.6.29-22.47-2s-17.27-14.26,1.78-28.23,33.72-8.09,33.3-1.52,3.29,18.43,5.08,17.85,0,4.49,0,4.49Z"/><path class="cls-18" d="M509.13,579.19a27.51,27.51,0,0,1,13.16,8.75c5.89,7,19.6.29,22.48-2S562,571.65,543,557.68s-33.72-8.09-33.31-1.52-3.29,18.43-5.07,17.85,0,4.49,0,4.49Z"/><path class="cls-38" d="M509.13,579.19a27.51,27.51,0,0,1,13.16,8.75c5.89,7,19.6.29,22.48-2S562,571.65,543,557.68s-33.72-8.09-33.31-1.52-3.29,18.43-5.07,17.85,0,4.49,0,4.49Z"/><path class="cls-18" d="M501.79,591.25s-5.87,2.78-8.5.31,4.58-13.63,3.39-14a3.66,3.66,0,0,0-2.07-.08s-.22-2,1.49-1.34,1.69,6.8,2.08,7.66,2.36,1.63,3.28,3.79,1,1.49.33,3.65"/><path class="cls-39" d="M501.79,591.25s-5.87,2.78-8.5.31,4.58-13.63,3.39-14a3.66,3.66,0,0,0-2.07-.08s-.22-2,1.49-1.34,1.69,6.8,2.08,7.66,2.36,1.63,3.28,3.79S502.49,589.09,501.79,591.25Z"/><path class="cls-18" d="M501.45,572.62s-3.42-1.9-3.29,3.74a36,36,0,0,1-.69,8.52c0,.59,2.47,2.2,2.89,1.51s-1,.44-.42.69,1.09.88,1.51.68,0-15.14,0-15.14"/><path class="cls-39" d="M501.45,572.62s-3.42-1.9-3.29,3.74a36,36,0,0,1-.69,8.52c0,.59,2.47,2.2,2.89,1.51s-1,.44-.42.69,1.09.88,1.51.68S501.45,572.62,501.45,572.62Z"/><path class="cls-18" d="M500.87,591.25s5.87,2.78,8.5.31-4.57-13.63-3.38-14a3.67,3.67,0,0,1,2.07-.08s.21-2-1.5-1.34-1.68,6.8-2.07,7.66-2.36,1.63-3.28,3.79-1,1.49-.34,3.65"/><path class="cls-39" d="M500.87,591.25s5.87,2.78,8.5.31-4.57-13.63-3.38-14a3.67,3.67,0,0,1,2.07-.08s.21-2-1.5-1.34-1.68,6.8-2.07,7.66-2.36,1.63-3.28,3.79S500.17,589.09,500.87,591.25Z"/><path class="cls-18" d="M501.21,572.62s3.43-1.9,3.29,3.74a37.07,37.07,0,0,0,.68,8.52c0,.59-2.46,2.2-2.87,1.51s.95.44.41.69-1.09.88-1.51.68,0-15.14,0-15.14"/><path class="cls-39" d="M501.21,572.62s3.43-1.9,3.29,3.74a37.07,37.07,0,0,0,.68,8.52c0,.59-2.46,2.2-2.87,1.51s.95.44.41.69-1.09.88-1.51.68S501.21,572.62,501.21,572.62Z"/><path class="cls-18" d="M497.3,603.27s3.85,26.85,0,30.86c0,0,6,1.33,10.35,0,0,0-7.15-27.2-4-29.35s-6.35-1.51-6.35-1.51"/><path class="cls-38" d="M497.3,603.27s3.85,26.85,0,30.86c0,0,6,1.33,10.35,0,0,0-7.15-27.2-4-29.35S497.3,603.27,497.3,603.27Z"/><path class="cls-18" d="M497.66,591.32s-5.55,4.42-7.71,4.32-.31,5.55,4.52,7.5,4.63,3.4,7.41,2.88V590.29a3.43,3.43,0,0,0-4.22,1"/><path class="cls-38" d="M497.66,591.32s-5.55,4.42-7.71,4.32-.31,5.55,4.52,7.5,4.63,3.4,7.41,2.88V590.29A3.43,3.43,0,0,0,497.66,591.32Z"/><path class="cls-18" d="M505.62,591.32s5.55,4.42,7.71,4.32.31,5.55-4.52,7.5-4.63,3.4-7.4,2.88V590.29a3.42,3.42,0,0,1,4.21,1"/><path class="cls-38" d="M505.62,591.32s5.55,4.42,7.71,4.32.31,5.55-4.52,7.5-4.63,3.4-7.4,2.88V590.29A3.42,3.42,0,0,1,505.62,591.32Z"/><path class="cls-40" d="M501.88,132.25H430.7s16.79,41,71.18,38.94c54.38,2,71.16-38.94,71.16-38.94Z"/><path class="cls-41" d="M575.05,122.18C520,83.24,501.88,86.6,501.88,86.6s-18.14-3.36-73.19,35.58c0,0-6,6,2.69,11.42h141c8.73-5.38,2.68-11.42,2.68-11.42"/><path class="cls-42" d="M502.54,133.59H431.38s1.34,8.74,9.4,9.4c7.83.66,44.8-7.55,60.42-4.92v.22c.2,0,.46-.06.68-.1l.66.1v-.22c15.62-2.63,52.59,5.58,60.43,4.92,8.06-.66,9.4-9.4,9.4-9.4Z"/><path class="cls-43" d="M446.15,79.89s-21.49,19.47,4,34.91c0,0,16.28,1.43,18.55-9s-11.17-38.65-22.58-25.89"/><path class="cls-44" d="M445.48,79.89a16.62,16.62,0,0,1,8.06-5.38C462.43,72,473.73,78,481.06,90c0,0,4.87,7.13-5.37,17.46a32.3,32.3,0,0,1-9.4,4.7c-3.26,1-13.44,2.62-10.07,2,9.67-4.07,11.41-7.38,11.41-7.38,1.82-3.44.37-7.41-1.34-12.08a41.82,41.82,0,0,0-10.07-15.45,6.83,6.83,0,0,0-3.36-2,7.65,7.65,0,0,0-7.38,2.69"/><path d="M439.44,102.71s21.48,2,20.81-6.71-16.78-9.4-19.47-7.39-4,10.08-1.34,14.1"/><path class="cls-43" d="M561,79.21s21.48,19.47-4,34.91c0,0-16.28,1.44-18.55-9S549.62,66.46,561,79.21"/><path class="cls-44" d="M561.71,79.21a16.77,16.77,0,0,0-8.06-5.38c-8.89-2.52-20.2,3.52-27.52,15.45,0,0-4.87,7.14,5.37,17.46a32.6,32.6,0,0,0,9.39,4.7,83.43,83.43,0,0,0,10.07,2c-9.66-4.07-11.41-7.38-11.41-7.38-1.81-3.45-.36-7.41,1.34-12.09A42.15,42.15,0,0,1,551,78.54a6.93,6.93,0,0,1,3.36-2,7.67,7.67,0,0,1,7.39,2.68"/><path d="M567.75,102s-21.48,2-20.81-6.71,16.79-9.4,19.47-7.39,4,10.07,1.34,14.1"/><path d="M493.15,118.49c0,2-1.36,3.69-3,3.69s-3-1.65-3-3.69,1.36-3.69,3-3.69,3,1.65,3,3.69"/><path d="M513.29,118.49c0,2-1.35,3.69-3,3.69s-3-1.65-3-3.69,1.35-3.69,3-3.69,3,1.65,3,3.69"/></g></g></svg>