<svg id="Layer_1" data-name="Layer 1" xmlns="http://www.w3.org/2000/svg" xmlns:xlink="http://www.w3.org/1999/xlink" viewBox="0 0 211.62 88.57"><defs><style>.cls-1,.cls-10,.cls-13,.cls-30,.cls-32,.cls-34,.cls-4,.cls-46,.cls-47,.cls-5,.cls-9{fill:none;}.cls-13,.cls-2,.cls-30,.cls-4,.cls-46,.cls-47,.cls-5,.cls-6,.cls-8{stroke:#000;}.cls-10,.cls-13,.cls-2,.cls-30,.cls-32,.cls-34,.cls-4,.cls-46,.cls-47,.cls-5,.cls-6,.cls-8,.cls-9{stroke-miterlimit:10;}.cls-3,.cls-8{fill:#fff;}.cls-5{stroke-width:0.4px;}.cls-6{stroke-width:0.2px;}.cls-7{font-size:2.22px;font-family:Arial-Black, Arial Black;}.cls-10,.cls-32,.cls-34,.cls-9{stroke:#fff;}.cls-9{stroke-width:0.5px;}.cls-11{clip-path:url(#clip-path);}.cls-12{fill:#333104;}.cls-13{stroke-width:0.42px;}.cls-14{fill:#dfed7a;}.cls-15{fill:#8fef78;}.cls-16{fill:#79bff2;}.cls-17{fill:#1873d6;}.cls-18{fill:#a5d5f2;}.cls-19{fill:#52a1e8;}.cls-20{fill:#063056;}.cls-21{fill:#ed4850;}.cls-22{fill:#7f0a1e;}.cls-23{fill:#f79caa;}.cls-24{fill:#7c0a2b;}.cls-25{fill:#350606;}.cls-26{fill:#088708;}.cls-27{fill:#7c790e;}.cls-28{fill:#7f5005;}.cls-29{fill:#939393;}.cls-30{stroke-width:0.83px;}.cls-31{fill:#8fea9c;}.cls-32,.cls-46{stroke-width:0.21px;}.cls-33{fill:#3d0335;}.cls-34,.cls-47{stroke-width:0.08px;}.cls-35{fill:#b50d95;}.cls-36{fill:#ad0cc4;}.cls-37{fill:#eaace4;}.cls-38{fill:#095b13;}.cls-39{fill:#e530d4;}.cls-40{fill:#91dbe8;}.cls-41{fill:#0a208e;}.cls-42{fill:#0f80b2;}.cls-43{fill:#7583cc;}.cls-44{fill:#a0efef;}.cls-45{fill:#33dae2;}.cls-48{fill:#aaa;}.cls-49{fill:#3a3a3a;}.cls-50{fill:#bcbcbc;}.cls-51{fill:#6b6b6b;}.cls-52{fill:#848484;}</style><clipPath id="clip-path" transform="translate(-7.99 -8.82)"><rect class="cls-1" x="129.33" y="4.42" width="97.66" height="98.49"/></clipPath></defs><title>lo-fi_icons</title><rect x="3.59" y="7.58" width="11.06" height="9.38"/><path d="M22.13,16.9v8.38h-10V16.9h10m1-1h-12V26.28h12V15.9Z" transform="translate(-7.99 -8.82)"/><polygon class="cls-2" points="8.83 8.23 8.83 2.46 1.56 8.23 8.83 8.23"/><polygon class="cls-2" points="9.87 2.46 9.87 8.23 17.14 8.23 9.87 2.46"/><rect class="cls-3" x="7.39" y="12.99" width="3.46" height="4.47"/><rect x="32.93" y="21.61" width="8.22" height="1.95" transform="translate(-14.23 16.67) rotate(-35.21)"/><circle class="cls-4" cx="36.82" cy="8.28" r="5.82"/><rect x="94.71" y="13.24" width="3.34" height="11.74" transform="translate(43.38 -77.05) rotate(51.52)"/><polygon class="cls-5" points="81.54 15.74 84.55 15.15 82.79 12.94 81.54 15.74"/><polygon points="81.65 15.71 82.5 15.56 81.98 14.91 81.65 15.71"/><circle class="cls-6" cx="9.12" cy="33.74" r="7.17"/><rect class="cls-3" x="19.03" y="41.54" width="0.6" height="4.66" transform="translate(59.22 37.31) rotate(116.48)"/><rect class="cls-3" x="15.84" y="37.33" width="0.6" height="6.11" transform="translate(39.77 61.43) rotate(155.16)"/><circle class="cls-3" cx="9.3" cy="34.03" r="0.6"/><circle class="cls-4" cx="34.59" cy="33.69" r="6.7"/><text class="cls-7" transform="translate(33.72 30.63)">N</text><polygon points="31.23 37.78 35.2 34.33 34.3 33.51 31.23 37.78"/><polygon points="38.26 30.1 34.29 33.55 35.2 34.38 38.26 30.1"/><circle class="cls-3" cx="34.76" cy="33.95" r="0.92"/><circle cx="34.76" cy="33.91" r="0.51"/><polygon class="cls-6" points="56.26 40.26 60.03 36.98 57.01 35.31 56.26 40.26"/><rect x="55.27" y="29.07" width="13.06" height="8.71" rx="1" ry="1"/><circle class="cls-3" cx="59.09" cy="33.48" r="0.93"/><circle class="cls-3" cx="61.98" cy="33.48" r="0.93"/><circle class="cls-3" cx="64.85" cy="33.48" r="0.93"/><rect class="cls-8" x="81.09" y="29.43" width="15.67" height="9.63"/><polygon class="cls-4" points="88.93 33.43 95.75 39.03 82.11 39.03 88.93 33.43"/><polygon class="cls-8" points="88.93 35.19 95.75 29.59 82.11 29.59 88.93 35.19"/><rect class="cls-8" x="1.73" y="50.82" width="14.52" height="8.13"/><rect class="cls-2" x="2.98" y="52.26" width="9.39" height="5.26"/><rect class="cls-2" x="16.6" y="53.58" width="1.4" height="2.61"/><circle class="cls-4" cx="34.54" cy="54.89" r="6.04"/><circle class="cls-5" cx="34.54" cy="54.89" r="1.79"/><path d="M36.52,63.16s-.78,5.07,5.23,6.54L42,65.43a1.76,1.76,0,0,1-1.3-1.72Z" transform="translate(-7.99 -8.82)"/><path d="M48.63,64.19s.75-5.08-5.26-6.52l-.27,4.27a1.75,1.75,0,0,1,1.3,1.71Z" transform="translate(-7.99 -8.82)"/><polygon points="30.17 50.72 33.29 53.61 33.56 53.4 30.77 50.18 30.17 50.72"/><polygon points="38.31 59.71 35.44 56.57 35.66 56.31 38.86 59.12 38.31 59.71"/><rect class="cls-3" x="95.92" y="12.97" width="0.84" height="12.47" transform="translate(43.44 -76.99) rotate(51.52)"/><path d="M102.13,12.76h1.06a1.18,1.18,0,0,1,1.18,1.18v1.54a0,0,0,0,1,0,0h-3.41a0,0,0,0,1,0,0V13.94A1.18,1.18,0,0,1,102.13,12.76Z" transform="translate(41.85 -83.85) rotate(51.52)"/><path class="cls-4" d="M41.71,15.38a3.22,3.22,0,0,1,2.79-1.83" transform="translate(-7.99 -8.82)"/><rect x="54.44" y="4.1" width="14.33" height="10.06" rx="1" ry="1"/><rect class="cls-4" x="54.44" y="4.1" width="14.33" height="10.06" rx="1" ry="1"/><circle class="cls-3" cx="61.61" cy="9.48" r="3.83"/><polygon points="57.6 3.78 58.41 2.41 60.1 2.41 60.1 3.78 57.6 3.78"/><polygon points="61.62 3.78 60.81 2.41 59.12 2.41 59.12 3.78 61.62 3.78"/><rect x="54" y="2.78" width="1.79" height="1"/><circle cx="61.61" cy="9.6" r="2.01"/><rect class="cls-3" x="60.61" y="3.25" width="2.01" height="1.06"/><rect x="53.81" y="51.81" width="12.36" height="9.24" rx="1" ry="1"/><circle cx="57.08" cy="49.44" r="2.1"/><circle cx="61.77" cy="49.44" r="2.1"/><rect class="cls-3" x="61.04" y="53.93" width="5.5" height="1.26"/><path d="M74.53,65.37h3.58V60.65a.28.28,0,0,0-.41-.26c-.94.5-3.17,1.74-3.17,2.41Z" transform="translate(-7.99 -8.82)"/><path d="M74.53,65.14h3.58v4.73a.28.28,0,0,1-.41.25c-.94-.5-3.17-1.74-3.17-2.41Z" transform="translate(-7.99 -8.82)"/><polygon points="83.16 65.5 82.84 55.25 84 46.74 93.99 46.74 95 54.62 95 65.5 91.56 66.56 90.77 56.65 89.01 51.92 87.18 56.65 86.33 66.56 83.16 65.5"/><path class="cls-9" d="M92.05,58.26a2.74,2.74,0,0,0,2.43-2.11" transform="translate(-7.99 -8.82)"/><path class="cls-9" d="M101.37,58.26a2.74,2.74,0,0,1-2.43-2.11" transform="translate(-7.99 -8.82)"/><line class="cls-9" x1="88.92" y1="48.12" x2="88.92" y2="49.81"/><path d="M8,81.58l3.69-1.89s1-.88,5.14-.88V93.47s-3.58-.19-5-1.47V84.66l-1.75.9Z" transform="translate(-7.99 -8.82)"/><path d="M25.65,81.58,22,79.69s-1-.88-5.13-.88V93.47s3.57-.19,4.94-1.47V84.66l1.75.9Z" transform="translate(-7.99 -8.82)"/><ellipse class="cls-3" cx="8.83" cy="71.19" rx="1.87" ry="0.58"/><path class="cls-10" d="M11.33,89.82s6.06,4,10.79,0" transform="translate(-7.99 -8.82)"/><path class="cls-8" d="M39.07,86a9.71,9.71,0,0,0,1.47-2.4c.05-.51,1.32-1.71,1.78-2.13a.53.53,0,0,0,.17-.36c.06-.74.3-3.19,1.19-3.35,0,0,1.47-.55,2,2.7a3.76,3.76,0,0,1-1.1,3s2.94,0,3.68.13a1.89,1.89,0,0,1,1.45,1.22A1.3,1.3,0,0,1,49.61,86c-.18.26-.36.61-.22.82.24.37.86,1.54-.13,2.27,0,0,.5,1.54-.55,2,0,0,.49,1.66-.49,2.09,0,0-.84.3-1.8.57a7.94,7.94,0,0,1-3.46.18A18,18,0,0,1,39.07,93Z" transform="translate(-7.99 -8.82)"/><rect class="cls-3" x="27.24" y="76.38" width="3.62" height="8.14" rx="1" ry="1"/><rect class="cls-4" x="27.24" y="76.38" width="3.62" height="8.14" rx="1" ry="1"/><circle cx="29.04" cy="78.39" r="0.66"/><path d="M65,81.54s-3.41.55.32,7.09l1.48-.85s-1.56-2.19,0-3.17Z" transform="translate(-7.99 -8.82)"/><path d="M71.33,92.32s-2.16,2.71-6-3.74l1.46-.88s1.15,2.43,2.77,1.55Z" transform="translate(-7.99 -8.82)"/><rect x="66.19" y="80.38" width="2.1" height="3.9" rx="0.29" ry="0.29" transform="translate(-40.14 35.83) rotate(-30)"/><rect x="70.64" y="88.1" width="2.1" height="3.9" rx="0.29" ry="0.29" transform="translate(-43.41 39.09) rotate(-30)"/><circle class="cls-4" cx="61.61" cy="77.32" r="8.21"/><path class="cls-4" d="M70.83,83.28a3.22,3.22,0,0,1,1.71,2.86" transform="translate(-7.99 -8.82)"/><path class="cls-4" d="M72,81s3,2,2.49,5.11" transform="translate(-7.99 -8.82)"/><path d="M99.81,94s-1.88-5.14-8.76-8.74A16.83,16.83,0,0,0,98.4,81a1.6,1.6,0,0,1,1-.5c1.59-.13,5.78,0,5.31,4.76a3.28,3.28,0,0,1-.76,1.77C102.78,88.4,99.86,91.32,99.81,94Z" transform="translate(-7.99 -8.82)"/><ellipse class="cls-8" cx="94.66" cy="90.4" rx="2.44" ry="6.52" transform="translate(-44.19 84.59) rotate(-45)"/><circle cx="88.05" cy="84.38" r="2.28"/><path class="cls-4" d="M102.26,81s1.24-1.18,1.87-.58" transform="translate(-7.99 -8.82)"/><path class="cls-4" d="M101.66,82.35s1.1-1.32.46-1.91" transform="translate(-7.99 -8.82)"/><path class="cls-10" d="M96,85.65S99,84,99.55,83s2-.3,2-.3" transform="translate(-7.99 -8.82)"/><circle cx="34.54" cy="54.89" r="0.96"/><g class="cls-11"><g class="cls-11"><path class="cls-12" d="M144.41,70.55s-.67-7,3.76-6.68,3.63,5.3,3.55,6.12-3.16-3.28-7.31.56" transform="translate(-7.99 -8.82)"/><path d="M219.4,40.58a12,12,0,1,1-12.05-12,12.05,12.05,0,0,1,12.05,12" transform="translate(-7.99 -8.82)"/><circle class="cls-13" cx="199.36" cy="31.75" r="12.05"/><path class="cls-14" d="M188.8,40.58a12.06,12.06,0,1,1-12.06-12,12.06,12.06,0,0,1,12.06,12" transform="translate(-7.99 -8.82)"/><path class="cls-15" d="M159.94,40.58a12.05,12.05,0,1,1-12.05-12,12.06,12.06,0,0,1,12.05,12" transform="translate(-7.99 -8.82)"/><path class="cls-16" d="M136.14,18.27s2.61,6.37,11.06,6.06V18.27Z" transform="translate(-7.99 -8.82)"/><path class="cls-16" d="M158.27,18.27s-2.61,6.37-11.07,6.06V18.27Z" transform="translate(-7.99 -8.82)"/><path class="cls-17" d="M147.2,11.17s-2.81-.52-11.37,5.54c0,0-.94.94.41,1.77h11Z" transform="translate(-7.99 -8.82)"/><path class="cls-17" d="M147.2,11.17s2.82-.52,11.38,5.54c0,0,.94.94-.42,1.77h-11Z" transform="translate(-7.99 -8.82)"/><path class="cls-18" d="M136.24,18.48a1.73,1.73,0,0,0,1.47,1.46c1.25.11,7.3-1.25,9.6-.73v-.73H136.24" transform="translate(-7.99 -8.82)"/><path class="cls-18" d="M158.16,18.48a1.71,1.71,0,0,1-1.46,1.46c-1.25.11-7.3-1.25-9.6-.73v-.73h11.06" transform="translate(-7.99 -8.82)"/><path class="cls-17" d="M138.54,10.13s-3.34,3,.63,5.43c0,0,2.53.22,2.88-1.4s-1.73-6-3.51-4" transform="translate(-7.99 -8.82)"/><path class="cls-19" d="M138.44,10.13a2.56,2.56,0,0,1,1.25-.83c1.38-.4,3.14.54,4.28,2.4,0,0,.76,1.1-.84,2.71a5,5,0,0,1-1.46.73,11.67,11.67,0,0,1-1.56.31c1.5-.63,1.77-1.14,1.77-1.14a2.35,2.35,0,0,0-.21-1.88,6.43,6.43,0,0,0-1.56-2.4,1.07,1.07,0,0,0-.53-.32,1.19,1.19,0,0,0-1.14.42" transform="translate(-7.99 -8.82)"/><path d="M137.5,13.68s3.34.31,3.23-1-2.61-1.46-3-1.15a2,2,0,0,0-.21,2.19" transform="translate(-7.99 -8.82)"/><path class="cls-17" d="M156.4,10s3.34,3-.62,5.42c0,0-2.53.23-2.89-1.4s1.74-6,3.51-4" transform="translate(-7.99 -8.82)"/><path class="cls-19" d="M156.51,10a2.55,2.55,0,0,0-1.26-.84c-1.38-.39-3.14.55-4.28,2.4,0,0-.75,1.11.84,2.72a5,5,0,0,0,1.46.73,11.59,11.59,0,0,0,1.57.31c-1.51-.63-1.78-1.15-1.78-1.15-.28-.53-.05-1.15.21-1.88a6.49,6.49,0,0,1,1.57-2.4,1,1,0,0,1,.52-.31,1.18,1.18,0,0,1,1.15.42" transform="translate(-7.99 -8.82)"/><path d="M157.45,13.58s-3.34.31-3.24-1.05,2.61-1.46,3-1.15a2.07,2.07,0,0,1,.21,2.2" transform="translate(-7.99 -8.82)"/><path class="cls-20" d="M145.85,16.13a.48.48,0,1,1-.47-.57.53.53,0,0,1,.47.57" transform="translate(-7.99 -8.82)"/><path class="cls-20" d="M149,16.13a.48.48,0,1,1-.47-.57.53.53,0,0,1,.47.57" transform="translate(-7.99 -8.82)"/><path class="cls-21" d="M165.68,18s2.61,6.37,11.06,6.06V18Z" transform="translate(-7.99 -8.82)"/><path class="cls-21" d="M187.81,18s-2.61,6.37-11.07,6.06V18Z" transform="translate(-7.99 -8.82)"/><path class="cls-22" d="M176.74,10.89s-2.81-.52-11.37,5.54c0,0-.94.94.42,1.77h11Z" transform="translate(-7.99 -8.82)"/><path class="cls-22" d="M176.74,10.89s2.82-.52,11.38,5.54c0,0,.94.94-.42,1.77h-11Z" transform="translate(-7.99 -8.82)"/><path class="cls-23" d="M165.79,18.2a1.71,1.71,0,0,0,1.46,1.46c1.25.11,7.3-1.25,9.6-.73V18.2H165.79" transform="translate(-7.99 -8.82)"/><path class="cls-23" d="M187.7,18.2a1.71,1.71,0,0,1-1.46,1.46c-1.25.11-7.3-1.25-9.6-.73V18.2H187.7" transform="translate(-7.99 -8.82)"/><path class="cls-24" d="M168.08,9.85s-3.34,3,.63,5.43c0,0,2.53.22,2.88-1.4s-1.73-6-3.51-4" transform="translate(-7.99 -8.82)"/><path class="cls-21" d="M168,9.85A2.68,2.68,0,0,1,169.23,9c1.38-.39,3.14.55,4.28,2.41,0,0,.76,1.1-.84,2.71a5,5,0,0,1-1.46.73,11.67,11.67,0,0,1-1.56.31c1.5-.63,1.77-1.14,1.77-1.14a2.35,2.35,0,0,0-.21-1.88,6.43,6.43,0,0,0-1.56-2.4,1.07,1.07,0,0,0-.53-.32,1.2,1.2,0,0,0-1.14.42" transform="translate(-7.99 -8.82)"/><path d="M167,13.4s3.34.31,3.23-1-2.61-1.47-3-1.15A2,2,0,0,0,167,13.4" transform="translate(-7.99 -8.82)"/><path class="cls-24" d="M185.94,9.75s3.34,3-.62,5.42c0,0-2.53.23-2.89-1.4s1.74-6,3.51-4" transform="translate(-7.99 -8.82)"/><path class="cls-21" d="M186.05,9.75a2.5,2.5,0,0,0-1.26-.84c-1.38-.39-3.14.55-4.27,2.4,0,0-.76,1.11.83,2.72a5.3,5.3,0,0,0,1.46.73,14.08,14.08,0,0,0,1.57.31c-1.51-.63-1.78-1.15-1.78-1.15-.28-.53,0-1.15.21-1.88a6.49,6.49,0,0,1,1.57-2.4,1,1,0,0,1,.52-.31,1.18,1.18,0,0,1,1.15.42" transform="translate(-7.99 -8.82)"/><path d="M187,13.3s-3.34.31-3.24-1.05,2.61-1.46,3-1.15a2.05,2.05,0,0,1,.21,2.2" transform="translate(-7.99 -8.82)"/><path class="cls-25" d="M175.39,15.85a.48.48,0,1,1-.47-.57.53.53,0,0,1,.47.57" transform="translate(-7.99 -8.82)"/><path class="cls-25" d="M178.52,15.85a.48.48,0,1,1-.47-.57.53.53,0,0,1,.47.57" transform="translate(-7.99 -8.82)"/><path class="cls-26" d="M147.3,48a13.76,13.76,0,0,0-1.41,1s-1.76,1.05-3.87-2.81a.77.77,0,0,0,1.06.35s1.76-.35,1.76-.7-3.52.35-3.52.35a2.35,2.35,0,0,1-1.76-2.46,13.5,13.5,0,0,0,4.92.35s1.06,0-2.81-1.06-1.76-3.51-1.76-3.51,4.22,3.16,5.28,2.81-1.76-.7-2.46-1.41c0,0-2.46-1.4-2.82-2.46a8.91,8.91,0,0,0,.71-1.75c0-.36,3.16,2.1,3.86,3.16s1.06.35,1.06.35.35-.35-1.76-2.11c0,0-2.46-2.46-1.41-3.51s1.76-1.76,1.76-2.11,0,5.27,2.11,5.62c0,0,1.41.35-1.4-3.51,0,0-.36-2.11,0-2.46a4.82,4.82,0,0,1,1-.71s0,3.17.7,3.17-.35-2.82,0-3.17a1.25,1.25,0,0,0,1.06-.7s2.81.35,3.16,1.05c0,0-.35,2.47-1.05,2.82s-1.76,2.46-1.06,2.46,2.81-3.17,2.81-3.87c0,0,.36-1.41,0-1.41s1.41.36,1.76,1.76c0,0-1.76,3.87-4.22,5.63,0,0,0,1,1.06.35S154.33,35,154,34s1.75,1.76,1.4,2.46a10.89,10.89,0,0,1-2.46,3.17c-.7.35-2.81,1.76-2.46,2.11s2.11-.71,2.11-.71,2.81-2.11,2.81-3.86,1.06,2.81,1.06,2.81-3.87,3.51-5.28,3.16c0,0-.7.71,2.82.35a2.39,2.39,0,0,0,1.4-1.4c.35-1.06.7,1.76.35,2.11,0,0-1.4,1.05-1.75.7s-2.82-.35-2.82,0,.71.7.71.7,1.4.71,3.86-.7a2.77,2.77,0,0,1-1.4,2.81s-4.22-1.4-3.52-.7c0,0,0,1.76,3.17,1.06a3.83,3.83,0,0,1-2.82,1.75s-2.81-.7-3.16-1.75a2.76,2.76,0,0,1,0-1.76c0-.35-.35.7-.35,1.4v2.46h-.71Z" transform="translate(-7.99 -8.82)"/><path class="cls-3" d="M206.76,48a13.76,13.76,0,0,0-1.41,1s-1.75,1.05-3.86-2.81a.77.77,0,0,0,1,.35s1.76-.35,1.76-.7-3.52.35-3.52.35A2.35,2.35,0,0,1,199,43.81a13.5,13.5,0,0,0,4.92.35s1.05,0-2.82-1.06-1.75-3.51-1.75-3.51,4.22,3.16,5.27,2.81-1.76-.7-2.46-1.41c0,0-2.46-1.4-2.81-2.46a9,9,0,0,0,.7-1.75c0-.36,3.16,2.1,3.87,3.16s1.05.35,1.05.35.35-.35-1.76-2.11c0,0-2.46-2.46-1.4-3.51s1.76-1.76,1.76-2.11,0,5.27,2.1,5.62c0,0,1.41.35-1.4-3.51,0,0-.35-2.11,0-2.46a4.82,4.82,0,0,1,1-.71s0,3.17.71,3.17-.36-2.82,0-3.17a1.24,1.24,0,0,0,1.05-.7s2.81.35,3.16,1.05c0,0-.35,2.47-1.05,2.82s-1.76,2.46-1.05,2.46S211,34,211,33.26c0,0,.35-1.41,0-1.41s1.4.36,1.76,1.76c0,0-1.76,3.87-4.22,5.63,0,0,0,1,1,.35S213.79,35,213.44,34s1.76,1.76,1.41,2.46a10.92,10.92,0,0,1-2.47,3.17c-.7.35-2.81,1.76-2.46,2.11S212,41,212,41s2.82-2.11,2.82-3.86,1.05,2.81,1.05,2.81-3.87,3.51-5.27,3.16c0,0-.71.71,2.81.35a2.42,2.42,0,0,0,1.41-1.4c.35-1.06.7,1.76.35,2.11,0,0-1.41,1.05-1.76.7s-2.81-.35-2.81,0,.7.7.7.7,1.41.71,3.87-.7a2.77,2.77,0,0,1-1.41,2.81s-4.22-1.4-3.52-.7c0,0,0,1.76,3.17,1.06a3.8,3.8,0,0,1-2.81,1.75s-2.82-.7-3.17-1.75a2.76,2.76,0,0,1,0-1.76c0-.35-.35.7-.35,1.4v2.46h-.7Z" transform="translate(-7.99 -8.82)"/><path class="cls-13" d="M206.76,48a13.76,13.76,0,0,0-1.41,1s-1.75,1.05-3.86-2.81a.77.77,0,0,0,1,.35s1.76-.35,1.76-.7-3.52.35-3.52.35A2.35,2.35,0,0,1,199,43.81a13.5,13.5,0,0,0,4.92.35s1.05,0-2.82-1.06-1.75-3.51-1.75-3.51,4.22,3.16,5.27,2.81-1.76-.7-2.46-1.41c0,0-2.46-1.4-2.81-2.46a9,9,0,0,0,.7-1.75c0-.36,3.16,2.1,3.87,3.16s1.05.35,1.05.35.35-.35-1.76-2.11c0,0-2.46-2.46-1.4-3.51s1.76-1.76,1.76-2.11,0,5.27,2.1,5.62c0,0,1.41.35-1.4-3.51,0,0-.35-2.11,0-2.46a4.82,4.82,0,0,1,1-.71s0,3.17.71,3.17-.36-2.82,0-3.17a1.24,1.24,0,0,0,1.05-.7s2.81.35,3.16,1.05c0,0-.35,2.47-1.05,2.82s-1.76,2.46-1.05,2.46S211,34,211,33.26c0,0,.35-1.41,0-1.41s1.4.36,1.76,1.76c0,0-1.76,3.87-4.22,5.63,0,0,0,1,1,.35S213.79,35,213.44,34s1.76,1.76,1.41,2.46a10.92,10.92,0,0,1-2.47,3.17c-.7.35-2.81,1.76-2.46,2.11S212,41,212,41s2.82-2.11,2.82-3.86,1.05,2.81,1.05,2.81-3.87,3.51-5.27,3.16c0,0-.71.71,2.81.35a2.42,2.42,0,0,0,1.41-1.4c.35-1.06.7,1.76.35,2.11,0,0-1.41,1.05-1.76.7s-2.81-.35-2.81,0,.7.7.7.7,1.41.71,3.87-.7a2.77,2.77,0,0,1-1.41,2.81s-4.22-1.4-3.52-.7c0,0,0,1.76,3.17,1.06a3.8,3.8,0,0,1-2.81,1.75s-2.82-.7-3.17-1.75a2.76,2.76,0,0,1,0-1.76c0-.35-.35.7-.35,1.4v2.46h-.7Z" transform="translate(-7.99 -8.82)"/><path class="cls-27" d="M176.15,48a14,14,0,0,0-1.4,1s-1.76,1.05-3.87-2.81a.77.77,0,0,0,1.05.35s1.76-.35,1.76-.7-3.51.35-3.51.35a2.35,2.35,0,0,1-1.76-2.46,13.5,13.5,0,0,0,4.92.35s1,0-2.81-1.06-1.76-3.51-1.76-3.51S173,42.75,174,42.4s-1.75-.7-2.46-1.41c0,0-2.46-1.4-2.81-2.46a9,9,0,0,0,.7-1.75c0-.36,3.17,2.1,3.87,3.16s1,.35,1,.35.36-.35-1.75-2.11c0,0-2.46-2.46-1.41-3.51S173,32.91,173,32.56s0,5.27,2.11,5.62c0,0,1.4.35-1.41-3.51,0,0-.35-2.11,0-2.46a4.79,4.79,0,0,1,1.06-.71s0,3.17.7,3.17-.35-2.82,0-3.17a1.24,1.24,0,0,0,1.05-.7s2.82.35,3.17,1.05c0,0-.35,2.47-1.06,2.82s-1.75,2.46-1.05,2.46,2.81-3.17,2.81-3.87c0,0,.35-1.41,0-1.41s1.41.36,1.76,1.76c0,0-1.76,3.87-4.22,5.63,0,0,0,1,1.06.35S183.18,35,182.83,34s1.76,1.76,1.41,2.46a10.89,10.89,0,0,1-2.46,3.17c-.71.35-2.81,1.76-2.46,2.11s2.11-.71,2.11-.71,2.81-2.11,2.81-3.86,1,2.81,1,2.81-3.86,3.51-5.27,3.16c0,0-.7.71,2.81.35a2.4,2.4,0,0,0,1.41-1.4c.35-1.06.7,1.76.35,2.11,0,0-1.41,1.05-1.76.7s-2.81-.35-2.81,0,.7.7.7.7,1.41.71,3.87-.7a2.77,2.77,0,0,1-1.41,2.81s-4.21-1.4-3.51-.7c0,0,0,1.76,3.16,1.06A3.8,3.8,0,0,1,180,49.78s-2.81-.7-3.16-1.75a2.69,2.69,0,0,1,0-1.76c0-.35-.36.7-.36,1.4v2.46h-.7Z" transform="translate(-7.99 -8.82)"/><path class="cls-28" d="M137.71,69.62s1.9-8.22,4.43-8.85a15.68,15.68,0,0,0,4.42-1.9,8.69,8.69,0,0,1,10.11,5.06s1.9,3.79,1.26,5.06c0,0-1.31,2.44-6.42,2.71,0,0,.68-7.16-2.4-7.22s-3.92.79-4.24,7.4c0,0-5.84-.1-7.16-2.26" transform="translate(-7.99 -8.82)"/><path class="cls-12" d="M173.39,70.55s-1.23-7,3.19-6.67,3.95,5.21,3.87,6-2.91-3.21-7.06.63" transform="translate(-7.99 -8.82)"/><path class="cls-29" d="M166.57,69.62s1.9-8.22,4.42-8.85a15.66,15.66,0,0,0,4.43-1.9,8.69,8.69,0,0,1,10.11,5.06s1.89,3.79,1.26,5.06c0,0-1.32,2.44-6.42,2.71,0,0,.68-7.16-2.4-7.22s-3.92.79-4.24,7.4c0,0-5.84-.1-7.16-2.26" transform="translate(-7.99 -8.82)"/><path d="M203.87,70.55s-1.23-7,3.2-6.67,4,5.21,3.87,6-2.92-3.21-7.07.63" transform="translate(-7.99 -8.82)"/><path class="cls-30" d="M203.87,70.55s-1.23-7,3.2-6.67,4,5.21,3.87,6S208,66.71,203.87,70.55Z" transform="translate(-7.99 -8.82)"/><path class="cls-3" d="M197.18,69.62s1.89-8.22,4.42-8.85a15.51,15.51,0,0,0,4.42-1.9,8.69,8.69,0,0,1,10.11,5.06S218,67.72,217.4,69c0,0-1.32,2.44-6.43,2.71,0,0,.69-7.16-2.39-7.22s-3.93.79-4.24,7.4c0,0-5.85-.1-7.16-2.26" transform="translate(-7.99 -8.82)"/><path class="cls-30" d="M197.18,69.62s1.89-8.22,4.42-8.85a15.51,15.51,0,0,0,4.42-1.9,8.69,8.69,0,0,1,10.11,5.06S218,67.72,217.4,69c0,0-1.32,2.44-6.43,2.71,0,0,.69-7.16-2.39-7.22s-3.93.79-4.24,7.4C204.34,71.88,198.49,71.78,197.18,69.62Z" transform="translate(-7.99 -8.82)"/><path class="cls-31" d="M158,87.13A10.16,10.16,0,1,1,147.89,77,10.15,10.15,0,0,1,158,87.13" transform="translate(-7.99 -8.82)"/><circle class="cls-32" cx="139.9" cy="78.31" r="10.15"/><path class="cls-33" d="M144.62,83.68s0-2.21,3.11-2.21,3,2.38,3,2.38-.59,3.71-1.53,3.75-2.17.3-2.47,0a6,6,0,0,1-2.09-3.92" transform="translate(-7.99 -8.82)"/><path class="cls-34" d="M144.62,83.68s0-2.21,3.11-2.21,3,2.38,3,2.38-.59,3.71-1.53,3.75-2.17.3-2.47,0A6,6,0,0,1,144.62,83.68Z" transform="translate(-7.99 -8.82)"/><path class="cls-33" d="M146,91.39s-3.35,1.57-4.51.48a2.3,2.3,0,0,1,.16-2.72s1.38,1,2.43.64c1.47-.53,2-2.05,2.78-1.85.61.15,1.14,1.47.61,2.46a4.64,4.64,0,0,1-1.47,1" transform="translate(-7.99 -8.82)"/><path class="cls-34" d="M146,91.39s-3.35,1.57-4.51.48a2.3,2.3,0,0,1,.16-2.72s1.38,1,2.43.64c1.47-.53,2-2.05,2.78-1.85.61.15,1.14,1.47.61,2.46A4.64,4.64,0,0,1,146,91.39Z" transform="translate(-7.99 -8.82)"/><path class="cls-33" d="M149.67,91.39s3.35,1.57,4.5.48a2.28,2.28,0,0,0-.16-2.72s-1.37,1-2.42.64c-1.47-.53-2-2.05-2.79-1.85-.6.15-1.13,1.47-.6,2.46a4.64,4.64,0,0,0,1.47,1" transform="translate(-7.99 -8.82)"/><path class="cls-34" d="M149.67,91.39s3.35,1.57,4.5.48a2.28,2.28,0,0,0-.16-2.72s-1.37,1-2.42.64c-1.47-.53-2-2.05-2.79-1.85-.6.15-1.13,1.47-.6,2.46A4.64,4.64,0,0,0,149.67,91.39Z" transform="translate(-7.99 -8.82)"/><path class="cls-35" d="M146.61,88.41a4.27,4.27,0,0,0-2.05,1.36c-.91,1.09-3,0-3.49-.31s-2.69-2.22.27-4.39,5.25-1.26,5.18-.24.51,2.87.79,2.78,0,.7,0,.7Z" transform="translate(-7.99 -8.82)"/><path class="cls-32" d="M146.61,88.41a4.27,4.27,0,0,0-2.05,1.36c-.91,1.09-3,0-3.49-.31s-2.69-2.22.27-4.39,5.25-1.26,5.18-.24.51,2.87.79,2.78,0,.7,0,.7Z" transform="translate(-7.99 -8.82)"/><path class="cls-35" d="M149,88.41a4.22,4.22,0,0,1,2,1.36c.92,1.09,3.05,0,3.5-.31s2.68-2.22-.28-4.39-5.24-1.26-5.18-.24-.51,2.87-.79,2.78,0,.7,0,.7Z" transform="translate(-7.99 -8.82)"/><path class="cls-32" d="M149,88.41a4.22,4.22,0,0,1,2,1.36c.92,1.09,3.05,0,3.5-.31s2.68-2.22-.28-4.39-5.24-1.26-5.18-.24-.51,2.87-.79,2.78,0,.7,0,.7Z" transform="translate(-7.99 -8.82)"/><path class="cls-36" d="M147.88,90.29s-.92.43-1.33,0,.72-2.12.53-2.18a.52.52,0,0,0-.32,0s0-.31.23-.21.26,1.06.32,1.19.37.25.51.59.16.23.06.57" transform="translate(-7.99 -8.82)"/><path class="cls-34" d="M147.88,90.29s-.92.43-1.33,0,.72-2.12.53-2.18a.52.52,0,0,0-.32,0s0-.31.23-.21.26,1.06.32,1.19.37.25.51.59S148,90,147.88,90.29Z" transform="translate(-7.99 -8.82)"/><path class="cls-37" d="M147.82,87.39s-.53-.29-.51.58a5.64,5.64,0,0,1-.11,1.33c0,.09.39.34.45.23s-.15.07-.06.11.17.14.23.11,0-2.36,0-2.36" transform="translate(-7.99 -8.82)"/><path class="cls-36" d="M147.73,90.29s.91.43,1.32,0-.71-2.12-.52-2.18a.53.53,0,0,1,.32,0s0-.31-.23-.21-.26,1.06-.33,1.19-.36.25-.51.59-.16.23-.05.57" transform="translate(-7.99 -8.82)"/><path class="cls-34" d="M147.73,90.29s.91.43,1.32,0-.71-2.12-.52-2.18a.53.53,0,0,1,.32,0s0-.31-.23-.21-.26,1.06-.33,1.19-.36.25-.51.59S147.62,90,147.73,90.29Z" transform="translate(-7.99 -8.82)"/><path class="cls-37" d="M147.79,87.39s.53-.29.51.58a5.38,5.38,0,0,0,.1,1.33c0,.09-.38.34-.44.23s.14.07.06.11-.17.14-.23.11,0-2.36,0-2.36" transform="translate(-7.99 -8.82)"/><path class="cls-38" d="M147.2,92.36s.6,4.18,0,4.8a3.76,3.76,0,0,0,1.61,0s-1.11-4.23-.62-4.56-1-.24-1-.24" transform="translate(-7.99 -8.82)"/><path class="cls-39" d="M147.23,90.3s-.86.69-1.2.67,0,.86.71,1.17.72.52,1.15.44V90.14a.54.54,0,0,0-.66.16" transform="translate(-7.99 -8.82)"/><path class="cls-39" d="M148.47,90.3s.86.69,1.2.67.05.86-.7,1.17-.72.52-1.15.44V90.14a.53.53,0,0,1,.65.16" transform="translate(-7.99 -8.82)"/><path class="cls-40" d="M186.9,87a10.16,10.16,0,1,1-10.16-10.16A10.15,10.15,0,0,1,186.9,87" transform="translate(-7.99 -8.82)"/><circle class="cls-32" cx="168.76" cy="78.18" r="10.15"/><path class="cls-41" d="M173.48,83.54s0-2.21,3.11-2.21,3,2.39,3,2.39-.6,3.7-1.53,3.75-2.18.29-2.48,0a6,6,0,0,1-2.08-3.93" transform="translate(-7.99 -8.82)"/><path class="cls-34" d="M173.48,83.54s0-2.21,3.11-2.21,3,2.39,3,2.39-.6,3.7-1.53,3.75-2.18.29-2.48,0A6,6,0,0,1,173.48,83.54Z" transform="translate(-7.99 -8.82)"/><path class="cls-41" d="M174.84,91.25s-3.36,1.57-4.51.48a2.28,2.28,0,0,1,.16-2.72s1.37,1,2.43.64c1.46-.53,2-2,2.78-1.85s1.13,1.47.61,2.46a4.64,4.64,0,0,1-1.47,1" transform="translate(-7.99 -8.82)"/><path class="cls-34" d="M174.84,91.25s-3.36,1.57-4.51.48a2.28,2.28,0,0,1,.16-2.72s1.37,1,2.43.64c1.46-.53,2-2,2.78-1.85s1.13,1.47.61,2.46A4.64,4.64,0,0,1,174.84,91.25Z" transform="translate(-7.99 -8.82)"/><path class="cls-41" d="M178.52,91.25s3.36,1.57,4.51.48a2.28,2.28,0,0,0-.16-2.72s-1.37,1-2.43.64c-1.46-.53-2-2-2.78-1.85-.6.15-1.13,1.47-.61,2.46a4.76,4.76,0,0,0,1.47,1" transform="translate(-7.99 -8.82)"/><path class="cls-34" d="M178.52,91.25s3.36,1.57,4.51.48a2.28,2.28,0,0,0-.16-2.72s-1.37,1-2.43.64c-1.46-.53-2-2-2.78-1.85-.6.15-1.13,1.47-.61,2.46A4.76,4.76,0,0,0,178.52,91.25Z" transform="translate(-7.99 -8.82)"/><path class="cls-42" d="M175.46,88.28a4.27,4.27,0,0,0-2,1.36c-.92,1.09-3,0-3.5-.32s-2.68-2.22.28-4.39,5.24-1.26,5.18-.24.51,2.87.79,2.78,0,.7,0,.7Z" transform="translate(-7.99 -8.82)"/><path class="cls-32" d="M175.46,88.28a4.27,4.27,0,0,0-2,1.36c-.92,1.09-3,0-3.5-.32s-2.68-2.22.28-4.39,5.24-1.26,5.18-.24.51,2.87.79,2.78,0,.7,0,.7Z" transform="translate(-7.99 -8.82)"/><path class="cls-42" d="M177.87,88.28a4.27,4.27,0,0,1,2,1.36c.91,1.09,3.05,0,3.49-.32s2.69-2.22-.27-4.39-5.25-1.26-5.18-.24-.51,2.87-.79,2.78,0,.7,0,.7Z" transform="translate(-7.99 -8.82)"/><path class="cls-32" d="M177.87,88.28a4.27,4.27,0,0,1,2,1.36c.91,1.09,3.05,0,3.49-.32s2.69-2.22-.27-4.39-5.25-1.26-5.18-.24-.51,2.87-.79,2.78,0,.7,0,.7Z" transform="translate(-7.99 -8.82)"/><path class="cls-43" d="M176.73,90.15s-.91.43-1.32,0,.71-2.12.53-2.18a.63.63,0,0,0-.32,0s0-.31.23-.21.26,1.06.32,1.19.37.26.51.59.16.23,0,.57" transform="translate(-7.99 -8.82)"/><path class="cls-34" d="M176.73,90.15s-.91.43-1.32,0,.71-2.12.53-2.18a.63.63,0,0,0-.32,0s0-.31.23-.21.26,1.06.32,1.19.37.26.51.59S176.84,89.81,176.73,90.15Z" transform="translate(-7.99 -8.82)"/><path class="cls-44" d="M176.68,87.25s-.53-.29-.51.59a5.6,5.6,0,0,1-.11,1.32c0,.09.38.34.45.23s-.15.07-.07.11.17.14.24.11,0-2.36,0-2.36" transform="translate(-7.99 -8.82)"/><path class="cls-43" d="M176.59,90.15s.91.43,1.32,0-.71-2.12-.52-2.18a.64.64,0,0,1,.32,0s0-.31-.24-.21-.26,1.06-.32,1.19-.36.26-.51.59-.16.23,0,.57" transform="translate(-7.99 -8.82)"/><path class="cls-34" d="M176.59,90.15s.91.43,1.32,0-.71-2.12-.52-2.18a.64.64,0,0,1,.32,0s0-.31-.24-.21-.26,1.06-.32,1.19-.36.26-.51.59S176.48,89.81,176.59,90.15Z" transform="translate(-7.99 -8.82)"/><path class="cls-44" d="M176.64,87.25s.53-.29.51.59a5.6,5.6,0,0,0,.11,1.32c0,.09-.38.34-.45.23s.15.07.07.11-.17.14-.24.11,0-2.36,0-2.36" transform="translate(-7.99 -8.82)"/><path class="cls-38" d="M176.06,92.23s.6,4.17,0,4.79a3.76,3.76,0,0,0,1.61,0s-1.11-4.22-.62-4.56-1-.23-1-.23" transform="translate(-7.99 -8.82)"/><path class="cls-45" d="M176.09,90.16s-.86.69-1.2.67,0,.86.7,1.17.72.53,1.15.45V90a.53.53,0,0,0-.65.16" transform="translate(-7.99 -8.82)"/><path class="cls-45" d="M177.33,90.16s.86.69,1.2.67,0,.86-.71,1.17-.72.53-1.15.45V90a.54.54,0,0,1,.66.16" transform="translate(-7.99 -8.82)"/><path d="M217.51,86.49a10.16,10.16,0,1,1-10.16-10.15,10.16,10.16,0,0,1,10.16,10.15" transform="translate(-7.99 -8.82)"/><circle class="cls-32" cx="199.36" cy="77.67" r="10.15"/><path class="cls-3" d="M204.08,83s0-2.22,3.11-2.22,3,2.39,3,2.39-.6,3.71-1.54,3.75-2.17.3-2.47,0A6,6,0,0,1,204.08,83" transform="translate(-7.99 -8.82)"/><path class="cls-46" d="M204.08,83s0-2.22,3.11-2.22,3,2.39,3,2.39-.6,3.71-1.54,3.75-2.17.3-2.47,0A6,6,0,0,1,204.08,83Z" transform="translate(-7.99 -8.82)"/><path class="cls-3" d="M205.44,90.75s-3.35,1.56-4.5.47a2.26,2.26,0,0,1,.16-2.71s1.37,1,2.43.64c1.46-.54,2-2.05,2.78-1.86a1.89,1.89,0,0,1,.61,2.47,5,5,0,0,1-1.48,1" transform="translate(-7.99 -8.82)"/><path class="cls-46" d="M205.44,90.75s-3.35,1.56-4.5.47a2.26,2.26,0,0,1,.16-2.71s1.37,1,2.43.64c1.46-.54,2-2.05,2.78-1.86a1.89,1.89,0,0,1,.61,2.47A5,5,0,0,1,205.44,90.75Z" transform="translate(-7.99 -8.82)"/><path class="cls-3" d="M209.13,90.75s3.36,1.56,4.51.47a2.28,2.28,0,0,0-.16-2.71s-1.38,1-2.43.64c-1.46-.54-2-2.05-2.78-1.86s-1.13,1.48-.61,2.47a4.85,4.85,0,0,0,1.47,1" transform="translate(-7.99 -8.82)"/><path class="cls-46" d="M209.13,90.75s3.36,1.56,4.51.47a2.28,2.28,0,0,0-.16-2.71s-1.38,1-2.43.64c-1.46-.54-2-2.05-2.78-1.86s-1.13,1.48-.61,2.47A4.85,4.85,0,0,0,209.13,90.75Z" transform="translate(-7.99 -8.82)"/><path class="cls-3" d="M206.07,87.77a4.22,4.22,0,0,0-2,1.36c-.92,1.09-3.05.05-3.5-.32s-2.68-2.21.28-4.39,5.24-1.25,5.18-.23.51,2.86.78,2.77,0,.7,0,.7Z" transform="translate(-7.99 -8.82)"/><path class="cls-46" d="M206.07,87.77a4.22,4.22,0,0,0-2,1.36c-.92,1.09-3.05.05-3.5-.32s-2.68-2.21.28-4.39,5.24-1.25,5.18-.23.51,2.86.78,2.77,0,.7,0,.7Z" transform="translate(-7.99 -8.82)"/><path class="cls-3" d="M208.48,87.77a4.27,4.27,0,0,1,2.05,1.36c.91,1.09,3,.05,3.49-.32s2.68-2.21-.28-4.39-5.24-1.25-5.17-.23-.52,2.86-.79,2.77,0,.7,0,.7Z" transform="translate(-7.99 -8.82)"/><path class="cls-46" d="M208.48,87.77a4.27,4.27,0,0,1,2.05,1.36c.91,1.09,3,.05,3.49-.32s2.68-2.21-.28-4.39-5.24-1.25-5.17-.23-.52,2.86-.79,2.77,0,.7,0,.7Z" transform="translate(-7.99 -8.82)"/><path class="cls-3" d="M207.34,89.64s-.91.44-1.32,0,.71-2.12.52-2.17a.53.53,0,0,0-.32,0s0-.31.23-.21.27,1,.33,1.19.36.25.51.59.16.23.05.56" transform="translate(-7.99 -8.82)"/><path class="cls-47" d="M207.34,89.64s-.91.44-1.32,0,.71-2.12.52-2.17a.53.53,0,0,0-.32,0s0-.31.23-.21.27,1,.33,1.19.36.25.51.59S207.45,89.31,207.34,89.64Z" transform="translate(-7.99 -8.82)"/><path class="cls-3" d="M207.29,86.75s-.54-.3-.52.58a5.25,5.25,0,0,1-.1,1.32c0,.1.38.35.45.24s-.15.07-.07.11.17.13.24.1,0-2.35,0-2.35" transform="translate(-7.99 -8.82)"/><path class="cls-47" d="M207.29,86.75s-.54-.3-.52.58a5.25,5.25,0,0,1-.1,1.32c0,.1.38.35.45.24s-.15.07-.07.11.17.13.24.1S207.29,86.75,207.29,86.75Z" transform="translate(-7.99 -8.82)"/><path class="cls-3" d="M207.2,89.64s.91.44,1.32,0-.71-2.12-.53-2.17a.52.52,0,0,1,.32,0s0-.31-.23-.21-.26,1-.32,1.19-.37.25-.51.59-.16.23-.05.56" transform="translate(-7.99 -8.82)"/><path class="cls-47" d="M207.2,89.64s.91.44,1.32,0-.71-2.12-.53-2.17a.52.52,0,0,1,.32,0s0-.31-.23-.21-.26,1-.32,1.19-.37.25-.51.59S207.09,89.31,207.2,89.64Z" transform="translate(-7.99 -8.82)"/><path class="cls-3" d="M207.25,86.75s.53-.3.51.58a5.51,5.51,0,0,0,.11,1.32c0,.1-.39.35-.45.24s.15.07.06.11-.17.13-.23.1,0-2.35,0-2.35" transform="translate(-7.99 -8.82)"/><path class="cls-47" d="M207.25,86.75s.53-.3.51.58a5.51,5.51,0,0,0,.11,1.32c0,.1-.39.35-.45.24s.15.07.06.11-.17.13-.23.1S207.25,86.75,207.25,86.75Z" transform="translate(-7.99 -8.82)"/><path class="cls-3" d="M206.64,91.51s.6,4.18,0,4.8a3.76,3.76,0,0,0,1.61,0s-1.11-4.23-.62-4.56-1-.24-1-.24" transform="translate(-7.99 -8.82)"/><path class="cls-46" d="M206.64,91.51s.6,4.18,0,4.8a3.76,3.76,0,0,0,1.61,0s-1.11-4.23-.62-4.56S206.64,91.51,206.64,91.51Z" transform="translate(-7.99 -8.82)"/><path class="cls-3" d="M206.7,89.65s-.87.69-1.2.68-.05.86.7,1.16.72.53,1.15.45V89.5a.52.52,0,0,0-.65.15" transform="translate(-7.99 -8.82)"/><path class="cls-46" d="M206.7,89.65s-.87.69-1.2.68-.05.86.7,1.16.72.53,1.15.45V89.5A.52.52,0,0,0,206.7,89.65Z" transform="translate(-7.99 -8.82)"/><path class="cls-3" d="M207.93,89.65s.87.69,1.2.68.05.86-.7,1.16-.72.53-1.15.45V89.5a.52.52,0,0,1,.65.15" transform="translate(-7.99 -8.82)"/><path class="cls-46" d="M207.93,89.65s.87.69,1.2.68.05.86-.7,1.16-.72.53-1.15.45V89.5A.52.52,0,0,1,207.93,89.65Z" transform="translate(-7.99 -8.82)"/><path class="cls-48" d="M207.35,18.29H196.29s2.61,6.36,11.06,6.05c8.46.31,11.07-6.05,11.07-6.05Z" transform="translate(-7.99 -8.82)"/><path class="cls-49" d="M218.73,16.72c-8.56-6-11.38-5.53-11.38-5.53s-2.82-.52-11.38,5.53c0,0-.94.94.42,1.77h21.92c1.36-.83.42-1.77.42-1.77" transform="translate(-7.99 -8.82)"/><path class="cls-50" d="M207.46,18.49H196.39A1.74,1.74,0,0,0,197.85,20c1.22.1,7-1.18,9.4-.77v0h.21v0c2.42-.41,8.17.87,9.39.77a1.74,1.74,0,0,0,1.46-1.47Z" transform="translate(-7.99 -8.82)"/><path class="cls-51" d="M198.69,10.14s-3.34,3,.62,5.43c0,0,2.54.22,2.89-1.4s-1.74-6-3.51-4" transform="translate(-7.99 -8.82)"/><path class="cls-52" d="M198.58,10.14a2.58,2.58,0,0,1,1.26-.83c1.38-.39,3.14.55,4.28,2.4,0,0,.75,1.11-.84,2.71a4.78,4.78,0,0,1-1.46.73,13.16,13.16,0,0,1-1.57.32c1.51-.64,1.78-1.15,1.78-1.15.28-.54.05-1.15-.21-1.88a6.49,6.49,0,0,0-1.57-2.4,1,1,0,0,0-.52-.31,1.2,1.2,0,0,0-1.15.41" transform="translate(-7.99 -8.82)"/><path d="M197.64,13.69s3.34.32,3.24-1-2.61-1.46-3-1.15a2.06,2.06,0,0,0-.21,2.19" transform="translate(-7.99 -8.82)"/><path class="cls-51" d="M216.55,10s3.34,3-.63,5.43c0,0-2.53.22-2.88-1.4s1.73-6,3.51-4" transform="translate(-7.99 -8.82)"/><path class="cls-52" d="M216.65,10a2.68,2.68,0,0,0-1.25-.84c-1.38-.39-3.14.55-4.28,2.41,0,0-.75,1.1.84,2.71a5,5,0,0,0,1.46.73,12,12,0,0,0,1.56.31c-1.5-.63-1.77-1.15-1.77-1.15-.28-.53-.06-1.15.21-1.87A6.35,6.35,0,0,1,215,9.94a1,1,0,0,1,.53-.32,1.18,1.18,0,0,1,1.14.42" transform="translate(-7.99 -8.82)"/><path d="M217.59,13.59s-3.34.31-3.23-1.05,2.61-1.46,3-1.14a2,2,0,0,1,.21,2.19" transform="translate(-7.99 -8.82)"/><path d="M206,16.15a.53.53,0,0,1-.46.57.59.59,0,1,1,.46-.57" transform="translate(-7.99 -8.82)"/><path d="M209.13,16.15a.48.48,0,1,1-.47-.58.53.53,0,0,1,.47.58" transform="translate(-7.99 -8.82)"/></g></g></svg>