<svg id="Layer_1" data-name="Layer 1" xmlns="http://www.w3.org/2000/svg" viewBox="0 0 112 105.33"><defs><style>.cls-1,.cls-3,.cls-4,.cls-5,.cls-7{stroke:#000;}.cls-1,.cls-3,.cls-4,.cls-5,.cls-7,.cls-8,.cls-9{stroke-miterlimit:10;}.cls-2,.cls-7{fill:#fff;}.cls-3,.cls-4,.cls-8,.cls-9{fill:none;}.cls-4{stroke-width:0.4px;}.cls-5{stroke-width:0.2px;}.cls-6{font-size:2.22px;font-family:Arial-Black, Arial Black;}.cls-8,.cls-9{stroke:#fff;}.cls-8{stroke-width:0.5px;}</style></defs><title>lo-fi_icons</title><rect x="11.58" y="16.4" width="11.06" height="9.38"/><path d="M22.13,16.9v8.38h-10V16.9h10m1-1h-12V26.28h12V15.9Z"/><polygon class="cls-1" points="16.82 17.05 16.82 11.28 9.55 17.05 16.82 17.05"/><polygon class="cls-1" points="17.86 11.28 17.86 17.05 25.12 17.05 17.86 11.28"/><rect class="cls-2" x="15.37" y="21.81" width="3.46" height="4.47"/><rect x="32.93" y="21.61" width="8.22" height="1.95" transform="translate(-6.25 25.49) rotate(-35.21)"/><circle class="cls-3" cx="44.8" cy="17.11" r="5.82"/><rect x="94.71" y="13.24" width="3.34" height="11.74" transform="translate(51.37 -68.23) rotate(51.52)"/><polygon class="cls-4" points="89.53 24.56 92.54 23.97 90.78 21.76 89.53 24.56"/><polygon points="89.64 24.53 90.48 24.39 89.97 23.74 89.64 24.53"/><circle class="cls-5" cx="17.11" cy="42.57" r="7.17"/><rect class="cls-2" x="19.03" y="41.54" width="0.6" height="4.66" transform="translate(67.21 46.13) rotate(116.48)"/><rect class="cls-2" x="15.84" y="37.33" width="0.6" height="6.11" transform="translate(47.76 70.25) rotate(155.16)"/><circle class="cls-2" cx="17.29" cy="42.86" r="0.6"/><circle class="cls-3" cx="42.57" cy="42.51" r="6.7"/><text class="cls-6" transform="translate(41.71 39.45)">N</text><polygon points="39.22 46.6 43.19 43.15 42.28 42.33 39.22 46.6"/><polygon points="46.25 38.93 42.28 42.38 43.18 43.2 46.25 38.93"/><circle class="cls-2" cx="42.74" cy="42.77" r="0.92"/><circle cx="42.74" cy="42.73" r="0.51"/><polygon class="cls-5" points="64.25 49.08 68.02 45.8 65 44.14 64.25 49.08"/><rect x="63.26" y="37.9" width="13.06" height="8.71" rx="1" ry="1"/><circle class="cls-2" cx="67.07" cy="42.31" r="0.93"/><circle class="cls-2" cx="69.96" cy="42.31" r="0.93"/><circle class="cls-2" cx="72.84" cy="42.31" r="0.93"/><rect class="cls-7" x="89.08" y="38.25" width="15.67" height="9.63"/><polygon class="cls-3" points="96.92 42.25 103.73 47.85 90.09 47.85 96.92 42.25"/><polygon class="cls-7" points="96.92 44.01 103.73 38.41 90.09 38.41 96.92 44.01"/><rect class="cls-7" x="9.72" y="59.65" width="14.52" height="8.13"/><rect class="cls-1" x="10.96" y="61.08" width="9.39" height="5.26"/><rect class="cls-1" x="24.59" y="62.41" width="1.4" height="2.61"/><circle class="cls-3" cx="42.53" cy="63.71" r="6.04"/><circle class="cls-4" cx="42.53" cy="63.71" r="1.79"/><path d="M36.52,63.16s-.78,5.07,5.23,6.54L42,65.43a1.76,1.76,0,0,1-1.3-1.72Z"/><path d="M48.63,64.19s.75-5.08-5.26-6.52l-.27,4.27a1.75,1.75,0,0,1,1.3,1.71Z"/><polygon points="38.16 59.55 41.28 62.44 41.54 62.23 38.75 59 38.16 59.55"/><polygon points="46.3 68.53 43.43 65.4 43.64 65.13 46.85 67.94 46.3 68.53"/><rect class="cls-2" x="95.92" y="12.97" width="0.84" height="12.47" transform="translate(51.42 -68.16) rotate(51.52)"/><path d="M102.13,12.76h1.06a1.18,1.18,0,0,1,1.18,1.18v1.54a0,0,0,0,1,0,0h-3.41a0,0,0,0,1,0,0V13.94A1.18,1.18,0,0,1,102.13,12.76Z" transform="translate(49.83 -75.03) rotate(51.52)"/><path class="cls-3" d="M41.71,15.38a3.22,3.22,0,0,1,2.79-1.83"/><rect x="62.43" y="12.92" width="14.33" height="10.06" rx="1" ry="1"/><rect class="cls-3" x="62.43" y="12.92" width="14.33" height="10.06" rx="1" ry="1"/><circle class="cls-2" cx="69.6" cy="18.3" r="3.83"/><polygon points="65.59 12.61 66.4 11.23 68.09 11.23 68.09 12.61 65.59 12.61"/><polygon points="69.61 12.61 68.8 11.23 67.11 11.23 67.11 12.61 69.61 12.61"/><rect x="61.98" y="11.61" width="1.79" height="1"/><circle cx="69.6" cy="18.42" r="2.01"/><rect class="cls-2" x="68.59" y="12.07" width="2.01" height="1.06"/><rect x="61.8" y="60.64" width="12.36" height="9.24" rx="1" ry="1"/><circle cx="65.06" cy="58.26" r="2.1"/><circle cx="69.75" cy="58.26" r="2.1"/><rect class="cls-2" x="69.02" y="62.75" width="5.5" height="1.26"/><path d="M74.53,65.37h3.58V60.65a.28.28,0,0,0-.41-.26c-.94.5-3.17,1.74-3.17,2.41Z"/><path d="M74.53,65.14h3.58v4.73a.28.28,0,0,1-.41.25c-.94-.5-3.17-1.74-3.17-2.41Z"/><polygon points="91.15 74.32 90.83 64.07 91.98 55.57 101.98 55.57 102.98 63.44 102.98 74.32 99.55 75.38 98.76 65.47 97 60.74 95.16 65.47 94.32 75.38 91.15 74.32"/><path class="cls-8" d="M92.05,58.26a2.74,2.74,0,0,0,2.43-2.11"/><path class="cls-8" d="M101.37,58.26a2.74,2.74,0,0,1-2.43-2.11"/><line class="cls-8" x1="96.91" y1="56.94" x2="96.91" y2="58.63"/><path d="M8,81.58l3.69-1.89s1-.88,5.14-.88V93.47s-3.58-.19-5-1.47V84.66l-1.75.9Z"/><path d="M25.65,81.58,22,79.69s-1-.88-5.13-.88V93.47s3.57-.19,4.94-1.47V84.66l1.75.9Z"/><ellipse class="cls-2" cx="16.82" cy="80.01" rx="1.87" ry="0.58"/><path class="cls-9" d="M11.33,89.82s6.06,4,10.79,0"/><path class="cls-7" d="M39.07,86a9.71,9.71,0,0,0,1.47-2.4c.05-.51,1.32-1.71,1.78-2.13a.53.53,0,0,0,.17-.36c.06-.74.3-3.19,1.19-3.35,0,0,1.47-.55,2,2.7a3.76,3.76,0,0,1-1.1,3s2.94,0,3.68.13a1.89,1.89,0,0,1,1.45,1.22A1.3,1.3,0,0,1,49.61,86c-.18.26-.36.61-.22.82.24.37.86,1.54-.13,2.27,0,0,.5,1.54-.55,2,0,0,.49,1.66-.49,2.09,0,0-.84.3-1.8.57a7.94,7.94,0,0,1-3.46.18A18,18,0,0,1,39.07,93Z"/><rect class="cls-2" x="35.23" y="85.2" width="3.62" height="8.14" rx="1" ry="1"/><rect class="cls-3" x="35.23" y="85.2" width="3.62" height="8.14" rx="1" ry="1"/><circle cx="37.03" cy="87.21" r="0.66"/><path d="M65,81.54s-3.41.55.32,7.09l1.48-.85s-1.56-2.19,0-3.17Z"/><path d="M71.33,92.32s-2.16,2.71-6-3.74l1.46-.88s1.15,2.43,2.77,1.55Z"/><rect x="66.19" y="80.38" width="2.1" height="3.9" rx="0.29" ry="0.29" transform="translate(-32.16 44.65) rotate(-30)"/><rect x="70.64" y="88.1" width="2.1" height="3.9" rx="0.29" ry="0.29" transform="translate(-35.42 47.91) rotate(-30)"/><circle class="cls-3" cx="69.6" cy="86.14" r="8.21"/><path class="cls-3" d="M70.83,83.28a3.22,3.22,0,0,1,1.71,2.86"/><path class="cls-3" d="M72,81s3,2,2.49,5.11"/><path d="M99.81,94s-1.88-5.14-8.76-8.74A16.83,16.83,0,0,0,98.4,81a1.6,1.6,0,0,1,1-.5c1.59-.13,5.78,0,5.31,4.76a3.28,3.28,0,0,1-.76,1.77C102.78,88.4,99.86,91.32,99.81,94Z"/><ellipse class="cls-7" cx="94.66" cy="90.4" rx="2.44" ry="6.52" transform="translate(-36.2 93.41) rotate(-45)"/><circle cx="96.04" cy="93.2" r="2.28"/><path class="cls-3" d="M102.26,81s1.24-1.18,1.87-.58"/><path class="cls-3" d="M101.66,82.35s1.1-1.32.46-1.91"/><path class="cls-9" d="M96,85.65S99,84,99.55,83s2-.3,2-.3"/><circle cx="42.53" cy="63.71" r="0.96"/></svg>